<svg width="555" height="350" viewBox="0 0 555 350" fill="none" xmlns="http://www.w3.org/2000/svg">
<path d="M187.75 163.312C187.75 155.479 190.375 148.938 195.625 143.688C200.875 138.396 207.333 135.75 215 135.75C222.708 135.75 229.188 138.396 234.438 143.688C239.688 148.979 242.312 155.521 242.312 163.312C242.312 171.938 239.646 178.729 234.312 183.688C228.979 188.604 222.542 191.062 215 191.062C207.458 191.062 201.021 188.562 195.688 183.562C190.396 178.521 187.75 171.771 187.75 163.312ZM198.125 163.625C198.125 172.708 199.604 179.083 202.562 182.75C205.521 186.375 209.667 188.188 215 188.188C220.458 188.188 224.625 186.375 227.5 182.75C230.417 179.083 231.875 172.708 231.875 163.625C231.875 154.625 230.438 148.208 227.562 144.375C224.688 140.542 220.5 138.625 215 138.625C209.542 138.625 205.354 140.542 202.438 144.375C199.562 148.167 198.125 154.583 198.125 163.625Z" fill="#0A0A0A"/>
<path d="M195.625 143.688L196.332 144.395L196.335 144.392L195.625 143.688ZM234.312 183.688L234.99 184.423L234.993 184.42L234.312 183.688ZM195.688 183.562L194.998 184.287L195.004 184.292L195.688 183.562ZM202.562 182.75L201.784 183.378L201.788 183.382L202.562 182.75ZM227.5 182.75L226.717 182.127L226.717 182.129L227.5 182.75ZM202.438 144.375L201.642 143.769L201.641 143.771L202.438 144.375ZM188.75 163.312C188.75 155.728 191.281 149.446 196.332 144.395L194.918 142.98C189.469 148.429 186.75 155.23 186.75 163.312H188.75ZM196.335 144.392C201.391 139.295 207.591 136.75 215 136.75V134.75C207.075 134.75 200.359 137.496 194.915 142.983L196.335 144.392ZM215 136.75C222.452 136.75 228.672 139.296 233.728 144.392L235.147 142.983C229.703 137.495 222.965 134.75 215 134.75V136.75ZM233.728 144.392C238.783 149.487 241.312 155.771 241.312 163.312H243.312C243.312 155.27 240.592 148.471 235.147 142.983L233.728 144.392ZM241.312 163.312C241.312 171.715 238.724 178.221 233.632 182.955L234.993 184.42C240.568 179.237 243.312 172.16 243.312 163.312H241.312ZM233.635 182.952C228.494 187.691 222.301 190.062 215 190.062V192.062C222.782 192.062 229.464 189.517 234.99 184.423L233.635 182.952ZM215 190.062C207.704 190.062 201.513 187.653 196.371 182.833L195.004 184.292C200.529 189.472 207.213 192.062 215 192.062V190.062ZM196.377 182.839C191.315 178.016 188.75 171.544 188.75 163.312H186.75C186.75 171.998 189.476 179.026 194.998 184.286L196.377 182.839ZM197.125 163.625C197.125 172.755 198.599 179.43 201.784 183.378L203.341 182.122C200.609 178.736 199.125 172.662 199.125 163.625H197.125ZM201.788 183.382C204.964 187.274 209.414 189.188 215 189.188V187.188C209.92 187.188 206.078 185.476 203.337 182.118L201.788 183.382ZM215 189.188C220.702 189.188 225.184 187.28 228.283 183.371L226.717 182.129C224.066 185.47 220.214 187.188 215 187.188V189.188ZM228.283 183.373C231.422 179.426 232.875 172.753 232.875 163.625H230.875C230.875 172.664 229.411 178.741 226.717 182.127L228.283 183.373ZM232.875 163.625C232.875 154.572 231.44 147.878 228.362 143.775L226.763 144.975C229.435 148.539 230.875 154.678 230.875 163.625H232.875ZM228.362 143.775C225.269 139.65 220.762 137.625 215 137.625V139.625C220.238 139.625 224.106 141.433 226.763 144.975L228.362 143.775ZM215 137.625C209.277 137.625 204.774 139.652 201.642 143.769L203.233 144.981C205.934 141.431 209.807 139.625 215 139.625V137.625ZM201.641 143.771C198.559 147.835 197.125 154.534 197.125 163.625H199.125C199.125 154.633 200.566 148.499 203.234 144.979L201.641 143.771Z" fill="#0A0A0A"/>
<path d="M268.438 148.812C269.854 145.104 272.146 142 275.312 139.5C278.521 137 281.646 135.75 284.688 135.75C287.438 135.75 289.604 136.604 291.188 138.312C292.771 140.021 293.562 141.771 293.562 143.562C293.562 144.771 293.146 145.812 292.312 146.688C291.521 147.562 290.542 148 289.375 148C287.292 148 285.708 146.458 284.625 143.375C283.875 141.292 282.75 140.25 281.25 140.25C279.458 140.25 277.312 141.479 274.812 143.938C272.312 146.354 270.708 148.875 270 151.5C269.292 154.125 268.938 157.729 268.938 162.312V171.438C268.938 176.896 269 180.333 269.125 181.75C269.292 183.167 269.896 184.25 270.938 185C271.979 185.75 273.833 186.125 276.5 186.125H278.25V189H251.062V186.125H252.375C254.875 186.125 256.646 185.792 257.688 185.125C258.771 184.417 259.417 183.438 259.625 182.188C259.833 180.938 259.938 177.354 259.938 171.438V157C259.938 151.5 259.854 148.062 259.688 146.688C259.562 145.271 258.979 144.188 257.938 143.438C256.896 142.646 255.042 142.25 252.375 142.25H251.062V139.438C254.979 138.979 260.104 137.75 266.438 135.75C267.646 139.042 268.312 143.396 268.438 148.812Z" fill="#0A0A0A"/>
<path d="M268.438 148.812L267.438 148.836L269.372 149.169L268.438 148.812ZM275.312 139.5L274.698 138.711L274.693 138.715L275.312 139.5ZM292.312 146.688L291.588 145.998L291.58 146.007L291.571 146.017L292.312 146.688ZM284.625 143.375L285.568 143.044L285.566 143.036L284.625 143.375ZM274.812 143.938L275.508 144.657L275.514 144.651L274.812 143.938ZM269.125 181.75L268.129 181.838L268.13 181.852L268.132 181.867L269.125 181.75ZM278.25 186.125H279.25V185.125H278.25V186.125ZM278.25 189V190H279.25V189H278.25ZM251.062 189H250.062V190H251.062V189ZM251.062 186.125V185.125H250.062V186.125H251.062ZM257.688 185.125L258.227 185.967L258.235 185.962L257.688 185.125ZM259.688 146.688L258.691 146.775L258.693 146.792L258.695 146.808L259.688 146.688ZM257.938 143.438L257.332 144.234L257.343 144.241L257.353 144.249L257.938 143.438ZM251.062 142.25H250.062V143.25H251.062V142.25ZM251.062 139.438L250.946 138.444L250.062 138.548V139.438H251.062ZM266.438 135.75L267.376 135.405L267.047 134.509L266.136 134.796L266.438 135.75ZM269.372 149.169C270.723 145.632 272.905 142.675 275.932 140.285L274.693 138.715C271.387 141.325 268.985 144.576 267.503 148.456L269.372 149.169ZM275.927 140.289C279.019 137.88 281.933 136.75 284.688 136.75V134.75C281.358 134.75 278.023 136.12 274.698 138.711L275.927 140.289ZM284.688 136.75C287.214 136.75 289.094 137.525 290.454 138.992L291.921 137.633C290.114 135.683 287.661 134.75 284.688 134.75V136.75ZM290.454 138.992C291.919 140.573 292.562 142.091 292.562 143.562H294.562C294.562 141.45 293.623 139.469 291.921 137.633L290.454 138.992ZM292.562 143.562C292.562 144.514 292.245 145.309 291.588 145.998L293.037 147.377C294.047 146.316 294.562 145.028 294.562 143.562H292.562ZM291.571 146.017C290.966 146.685 290.255 147 289.375 147V149C290.828 149 292.075 148.44 293.054 147.358L291.571 146.017ZM289.375 147C287.942 147 286.604 145.992 285.568 143.044L283.682 143.706C284.812 146.925 286.642 149 289.375 149V147ZM285.566 143.036C285.159 141.906 284.619 140.965 283.898 140.297C283.155 139.61 282.258 139.25 281.25 139.25V141.25C281.742 141.25 282.157 141.411 282.539 141.765C282.944 142.139 283.341 142.76 283.684 143.714L285.566 143.036ZM281.25 139.25C279.037 139.25 276.642 140.736 274.111 143.224L275.514 144.651C277.983 142.222 279.879 141.25 281.25 141.25V139.25ZM274.117 143.219C271.523 145.726 269.801 148.398 269.035 151.239L270.965 151.761C271.615 149.352 273.102 146.982 275.508 144.656L274.117 143.219ZM269.035 151.239C268.293 153.988 267.938 157.692 267.938 162.312H269.938C269.938 157.766 270.29 154.262 270.965 151.761L269.035 151.239ZM267.938 162.312V171.438H269.938V162.312H267.938ZM267.938 171.438C267.938 176.881 267.999 180.368 268.129 181.838L270.121 181.662C270.001 180.299 269.938 176.911 269.938 171.438H267.938ZM268.132 181.867C268.327 183.528 269.057 184.878 270.353 185.812L271.522 184.188C270.735 183.622 270.256 182.806 270.118 181.633L268.132 181.867ZM270.353 185.812C271.67 186.76 273.808 187.125 276.5 187.125V185.125C273.858 185.125 272.288 184.74 271.522 184.188L270.353 185.812ZM276.5 187.125H278.25V185.125H276.5V187.125ZM277.25 186.125V189H279.25V186.125H277.25ZM278.25 188H251.062V190H278.25V188ZM252.062 189V186.125H250.062V189H252.062ZM251.062 187.125H252.375V185.125H251.062V187.125ZM252.375 187.125C254.906 187.125 256.928 186.798 258.227 185.967L257.148 184.283C256.363 184.785 254.844 185.125 252.375 185.125V187.125ZM258.235 185.962C259.546 185.104 260.356 183.884 260.611 182.352L258.639 182.023C258.477 182.991 257.995 183.729 257.14 184.288L258.235 185.962ZM260.611 182.352C260.837 181 260.938 177.315 260.938 171.438H258.938C258.938 177.394 258.83 180.875 258.639 182.023L260.611 182.352ZM260.938 171.438V157H258.938V171.438H260.938ZM260.938 157C260.938 151.522 260.856 148.016 260.68 146.567L258.695 146.808C258.853 148.109 258.938 151.478 258.938 157H260.938ZM260.684 146.6C260.536 144.928 259.827 143.565 258.522 142.626L257.353 144.249C258.132 144.81 258.589 145.613 258.691 146.775L260.684 146.6ZM258.543 142.641C257.221 141.637 255.072 141.25 252.375 141.25V143.25C255.011 143.25 256.571 143.655 257.332 144.234L258.543 142.641ZM252.375 141.25H251.062V143.25H252.375V141.25ZM252.062 142.25V139.438H250.062V142.25H252.062ZM251.179 140.431C255.186 139.962 260.38 138.712 266.739 136.704L266.136 134.796C259.828 136.788 254.772 137.997 250.946 138.444L251.179 140.431ZM265.499 136.095C266.654 139.243 267.314 143.476 267.438 148.836L269.437 148.789C269.311 143.316 268.637 138.84 267.376 135.405L265.499 136.095Z" fill="#0A0A0A"/>
<path d="M312.062 135.75H312.688C313.896 138.542 314.5 142.125 314.5 146.5C317.292 142.917 320.292 140.229 323.5 138.438C326.75 136.646 330.229 135.75 333.938 135.75C338.146 135.75 341.562 136.708 344.188 138.625C346.812 140.542 348.646 143.417 349.688 147.25C352.854 143.417 356.104 140.542 359.438 138.625C362.771 136.708 366.167 135.75 369.625 135.75C373.583 135.75 376.938 136.667 379.688 138.5C382.438 140.333 384.104 142.417 384.688 144.75C385.271 147.083 385.562 150.854 385.562 156.062V171.438C385.562 177.396 385.667 181.021 385.875 182.312C386.125 183.604 386.792 184.562 387.875 185.188C389 185.812 391.062 186.125 394.062 186.125V189H368.5V186.125C371.208 186.125 373.104 185.833 374.188 185.25C375.312 184.625 376 183.708 376.25 182.5C376.5 181.25 376.625 177.562 376.625 171.438V154.375C376.625 150.917 376.417 148.312 376 146.562C375.625 144.812 374.604 143.312 372.938 142.062C371.271 140.812 369.104 140.188 366.438 140.188C363.729 140.188 361 141.104 358.25 142.938C355.542 144.771 352.812 147.542 350.062 151.25V171.438C350.062 176.896 350.125 180.333 350.25 181.75C350.417 183.125 351 184.208 352 185C353.042 185.75 354.875 186.125 357.5 186.125V189H332.75V186.125C335.542 186.125 337.479 185.833 338.562 185.25C339.688 184.667 340.375 183.771 340.625 182.562C340.917 181.354 341.062 177.646 341.062 171.438V157.25C341.062 152.75 340.875 149.5 340.5 147.5C340.167 145.458 339.104 143.729 337.312 142.312C335.521 140.854 333.292 140.125 330.625 140.125C328.042 140.125 325.396 140.958 322.688 142.625C320.021 144.292 317.292 146.792 314.5 150.125V171.438C314.5 177.062 314.583 180.562 314.75 181.938C314.917 183.312 315.542 184.354 316.625 185.062C317.708 185.771 319.646 186.125 322.438 186.125V189H297.375V186.125C300.125 186.125 302.042 185.833 303.125 185.25C304.25 184.625 304.938 183.708 305.188 182.5C305.438 181.292 305.562 177.604 305.562 171.438V156.125C305.562 150.292 305.458 146.729 305.25 145.438C305.083 144.104 304.438 143.104 303.312 142.438C302.229 141.771 300.25 141.438 297.375 141.438V138.562C303.292 137.979 308.188 137.042 312.062 135.75Z" fill="#0A0A0A"/>
<path d="M312.062 135.75V134.75H311.9L311.746 134.801L312.062 135.75ZM312.688 135.75L313.605 135.353L313.344 134.75H312.688V135.75ZM314.5 146.5H313.5V149.411L315.289 147.115L314.5 146.5ZM323.5 138.438L323.017 137.562L323.012 137.564L323.5 138.438ZM349.688 147.25L348.722 147.512L349.229 149.375L350.458 147.887L349.688 147.25ZM359.438 138.625L359.936 139.492L359.438 138.625ZM385.875 182.312L384.888 182.472L384.89 182.487L384.893 182.503L385.875 182.312ZM387.875 185.188L387.375 186.054L387.382 186.058L387.389 186.062L387.875 185.188ZM394.062 186.125H395.062V185.125H394.062V186.125ZM394.062 189V190H395.062V189H394.062ZM368.5 189H367.5V190H368.5V189ZM368.5 186.125V185.125H367.5V186.125H368.5ZM374.188 185.25L374.662 186.131L374.673 186.124L374.188 185.25ZM376.25 182.5L377.229 182.703L377.231 182.696L376.25 182.5ZM376 146.562L375.022 146.772L375.025 146.783L375.027 146.794L376 146.562ZM358.25 142.938L357.695 142.105L357.689 142.109L358.25 142.938ZM350.062 151.25L349.259 150.654L349.062 150.92V151.25H350.062ZM350.25 181.75L349.254 181.838L349.255 181.854L349.257 181.87L350.25 181.75ZM352 185L351.379 185.784L351.397 185.798L351.416 185.812L352 185ZM357.5 186.125H358.5V185.125H357.5V186.125ZM357.5 189V190H358.5V189H357.5ZM332.75 189H331.75V190H332.75V189ZM332.75 186.125V185.125H331.75V186.125H332.75ZM338.562 185.25L338.102 184.362L338.095 184.366L338.088 184.37L338.562 185.25ZM340.625 182.562L339.653 182.328L339.649 182.344L339.646 182.36L340.625 182.562ZM340.5 147.5L339.513 147.661L339.515 147.673L339.517 147.684L340.5 147.5ZM337.312 142.312L336.681 143.088L336.687 143.093L336.692 143.097L337.312 142.312ZM322.688 142.625L322.163 141.773L322.158 141.777L322.688 142.625ZM314.5 150.125L313.733 149.483L313.5 149.762V150.125H314.5ZM322.438 186.125H323.438V185.125H322.438V186.125ZM322.438 189V190H323.438V189H322.438ZM297.375 189H296.375V190H297.375V189ZM297.375 186.125V185.125H296.375V186.125H297.375ZM303.125 185.25L303.599 186.131L303.611 186.124L303.125 185.25ZM305.25 145.438L304.258 145.562L304.26 145.579L304.263 145.597L305.25 145.438ZM303.312 142.438L302.788 143.289L302.796 143.294L302.803 143.298L303.312 142.438ZM297.375 141.438H296.375V142.438H297.375V141.438ZM297.375 138.562L297.277 137.567L296.375 137.656V138.562H297.375ZM312.062 136.75H312.688V134.75H312.062V136.75ZM311.77 136.147C312.906 138.771 313.5 142.206 313.5 146.5H315.5C315.5 142.044 314.886 138.312 313.605 135.353L311.77 136.147ZM315.289 147.115C318.017 143.613 320.92 141.024 323.988 139.311L323.012 137.564C319.663 139.435 316.566 142.221 313.711 145.885L315.289 147.115ZM323.983 139.313C327.085 137.603 330.398 136.75 333.938 136.75V134.75C330.06 134.75 326.415 135.689 323.017 137.562L323.983 139.313ZM333.938 136.75C337.996 136.75 341.188 137.673 343.598 139.433L344.777 137.817C341.937 135.743 338.295 134.75 333.938 134.75V136.75ZM343.598 139.433C346.001 141.188 347.727 143.848 348.722 147.512L350.653 146.988C349.565 142.985 347.624 139.896 344.777 137.817L343.598 139.433ZM350.458 147.887C353.57 144.12 356.732 141.334 359.936 139.492L358.939 137.758C355.476 139.749 352.138 142.713 348.917 146.613L350.458 147.887ZM359.936 139.492C363.135 137.652 366.361 136.75 369.625 136.75V134.75C365.973 134.75 362.407 135.764 358.939 137.758L359.936 139.492ZM369.625 136.75C373.426 136.75 376.577 137.628 379.133 139.332L380.242 137.668C377.298 135.705 373.741 134.75 369.625 134.75V136.75ZM379.133 139.332C381.754 141.079 383.214 142.978 383.717 144.993L385.658 144.507C384.995 141.855 383.121 139.587 380.242 137.668L379.133 139.332ZM383.717 144.993C384.269 147.198 384.562 150.864 384.562 156.062H386.562C386.562 150.844 386.273 146.968 385.658 144.507L383.717 144.993ZM384.562 156.062V171.438H386.562V156.062H384.562ZM384.562 171.438C384.562 177.359 384.664 181.081 384.888 182.472L386.862 182.153C386.67 180.96 386.562 177.433 386.562 171.438H384.562ZM384.893 182.503C385.195 184.062 386.026 185.275 387.375 186.054L388.375 184.321C387.557 183.85 387.055 183.146 386.857 182.122L384.893 182.503ZM387.389 186.062C388.101 186.457 389.031 186.715 390.116 186.879C391.213 187.046 392.532 187.125 394.062 187.125V185.125C392.593 185.125 391.381 185.048 390.415 184.902C389.438 184.754 388.774 184.543 388.361 184.313L387.389 186.062ZM393.062 186.125V189H395.062V186.125H393.062ZM394.062 188H368.5V190H394.062V188ZM369.5 189V186.125H367.5V189H369.5ZM368.5 187.125C371.22 187.125 373.34 186.842 374.662 186.13L373.713 184.37C372.868 184.825 371.197 185.125 368.5 185.125V187.125ZM374.673 186.124C376.04 185.365 376.917 184.21 377.229 182.703L375.271 182.297C375.083 183.207 374.585 183.885 373.702 184.376L374.673 186.124ZM377.231 182.696C377.374 181.978 377.469 180.663 377.531 178.831C377.594 176.971 377.625 174.505 377.625 171.438H375.625C375.625 174.495 375.594 176.935 375.532 178.763C375.469 180.618 375.376 181.772 375.269 182.304L377.231 182.696ZM377.625 171.438V154.375H375.625V171.438H377.625ZM377.625 154.375C377.625 150.896 377.417 148.197 376.973 146.331L375.027 146.794C375.416 148.428 375.625 150.937 375.625 154.375H377.625ZM376.978 146.353C376.544 144.329 375.364 142.632 373.537 141.262L372.338 142.863C373.845 143.993 374.706 145.296 375.022 146.772L376.978 146.353ZM373.537 141.262C371.655 139.85 369.26 139.188 366.438 139.188V141.188C368.949 141.188 370.887 141.775 372.338 142.863L373.537 141.262ZM366.438 139.188C363.492 139.188 360.573 140.187 357.695 142.105L358.805 143.77C361.427 142.021 363.966 141.188 366.438 141.188V139.188ZM357.689 142.109C354.858 144.026 352.051 146.89 349.259 150.654L350.866 151.846C353.574 148.194 356.225 145.516 358.811 143.766L357.689 142.109ZM349.062 151.25V171.438H351.062V151.25H349.062ZM349.062 171.438C349.062 176.881 349.124 180.368 349.254 181.838L351.246 181.662C351.126 180.299 351.062 176.911 351.062 171.438H349.062ZM349.257 181.87C349.453 183.482 350.154 184.814 351.379 185.784L352.621 184.216C351.846 183.603 351.381 182.768 351.243 181.63L349.257 181.87ZM351.416 185.812C352.731 186.759 354.846 187.125 357.5 187.125V185.125C354.904 185.125 353.352 184.741 352.584 184.188L351.416 185.812ZM356.5 186.125V189H358.5V186.125H356.5ZM357.5 188H332.75V190H357.5V188ZM333.75 189V186.125H331.75V189H333.75ZM332.75 187.125C335.547 187.125 337.712 186.843 339.037 186.13L338.088 184.37C337.246 184.823 335.536 185.125 332.75 185.125V187.125ZM339.023 186.138C340.407 185.42 341.291 184.277 341.604 182.765L339.646 182.36C339.459 183.264 338.968 183.913 338.102 184.362L339.023 186.138ZM341.597 182.797C341.77 182.081 341.88 180.752 341.952 178.914C342.026 177.041 342.062 174.547 342.062 171.438H340.062C340.062 174.536 340.026 177 339.954 178.836C339.88 180.706 339.772 181.836 339.653 182.328L341.597 182.797ZM342.062 171.438V157.25H340.062V171.438H342.062ZM342.062 157.25C342.062 152.744 341.876 149.414 341.483 147.316L339.517 147.684C339.874 149.586 340.062 152.756 340.062 157.25H342.062ZM341.487 147.339C341.109 145.025 339.898 143.082 337.933 141.528L336.692 143.097C338.31 144.376 339.224 145.892 339.513 147.661L341.487 147.339ZM337.944 141.537C335.947 139.911 333.484 139.125 330.625 139.125V141.125C333.099 141.125 335.095 141.797 336.681 143.088L337.944 141.537ZM330.625 139.125C327.818 139.125 324.993 140.032 322.163 141.773L323.212 143.477C325.799 141.885 328.265 141.125 330.625 141.125V139.125ZM322.158 141.777C319.375 143.516 316.569 146.097 313.733 149.483L315.267 150.767C318.015 147.486 320.667 145.067 323.217 143.473L322.158 141.777ZM313.5 150.125V171.438H315.5V150.125H313.5ZM313.5 171.438C313.5 177.039 313.582 180.609 313.757 182.058L315.743 181.817C315.585 180.516 315.5 177.086 315.5 171.438H313.5ZM313.757 182.058C313.957 183.702 314.728 185.017 316.078 185.899L317.172 184.226C316.355 183.691 315.877 182.923 315.743 181.817L313.757 182.058ZM316.078 185.899C317.427 186.782 319.63 187.125 322.438 187.125V185.125C319.662 185.125 317.99 184.76 317.172 184.226L316.078 185.899ZM321.438 186.125V189H323.438V186.125H321.438ZM322.438 188H297.375V190H322.438V188ZM298.375 189V186.125H296.375V189H298.375ZM297.375 187.125C300.134 187.125 302.276 186.843 303.599 186.13L302.651 184.37C301.807 184.824 300.116 185.125 297.375 185.125V187.125ZM303.611 186.124C304.978 185.365 305.855 184.21 306.167 182.703L304.208 182.297C304.02 183.207 303.522 183.885 302.639 184.376L303.611 186.124ZM306.167 182.703C306.312 182.001 306.406 180.691 306.468 178.862C306.531 177.002 306.562 174.526 306.562 171.438H304.562C304.562 174.516 304.531 176.967 304.469 178.794C304.406 180.652 304.313 181.791 304.208 182.297L306.167 182.703ZM306.562 171.438V156.125H304.562V171.438H306.562ZM306.562 156.125C306.562 150.328 306.461 146.668 306.237 145.278L304.263 145.597C304.455 146.79 304.562 150.256 304.562 156.125H306.562ZM306.242 145.313C306.038 143.683 305.222 142.407 303.822 141.577L302.803 143.298C303.653 143.802 304.128 144.525 304.258 145.562L306.242 145.313ZM303.837 141.586C303.141 141.157 302.233 140.878 301.182 140.701C300.119 140.522 298.846 140.438 297.375 140.438V142.438C298.779 142.438 299.933 142.519 300.85 142.674C301.777 142.83 302.401 143.051 302.788 143.289L303.837 141.586ZM298.375 141.438V138.562H296.375V141.438H298.375ZM297.473 139.558C303.434 138.97 308.409 138.022 312.379 136.699L311.746 134.801C307.966 136.061 303.15 136.988 297.277 137.567L297.473 139.558Z" fill="#0A0A0A"/>
<path d="M452.75 137.812V171.375C452.75 176.958 452.833 180.458 453 181.875C453.167 183.292 453.771 184.354 454.812 185.062C455.896 185.771 457.812 186.125 460.562 186.125V189C454.229 189.083 449.604 189.75 446.688 191H445.938C444.604 188.708 443.896 184.75 443.812 179.125C441.271 183.083 438.354 186.062 435.062 188.062C431.812 190.062 428.208 191.062 424.25 191.062C420.833 191.062 417.812 190.292 415.188 188.75C412.562 187.167 410.75 185.25 409.75 183C408.792 180.75 408.312 177.354 408.312 172.812V155.375C408.312 149.458 408.208 145.854 408 144.562C407.792 143.229 407.125 142.25 406 141.625C404.917 141 402.896 140.688 399.938 140.688V137.812H417.312V173.312C417.312 176.812 417.521 179.354 417.938 180.938C418.354 182.521 419.417 183.917 421.125 185.125C422.833 186.292 424.812 186.875 427.062 186.875C430.271 186.875 433.333 185.833 436.25 183.75C439.167 181.625 441.146 179.396 442.188 177.062C443.271 174.688 443.812 171.312 443.812 166.938V155.375C443.812 149.792 443.75 146.396 443.625 145.188C443.5 143.979 442.958 142.938 442 142.062C441.083 141.146 439.146 140.688 436.188 140.688H434.875V137.812H452.75Z" fill="#0A0A0A"/>
<path d="M452.75 137.812H453.75V136.812H452.75V137.812ZM454.812 185.062L454.25 185.889L454.258 185.895L454.265 185.899L454.812 185.062ZM460.562 186.125H461.562V185.125H460.562V186.125ZM460.562 189L460.576 190L461.562 189.987V189H460.562ZM446.688 191V192H446.893L447.081 191.919L446.688 191ZM445.938 191L445.073 191.503L445.362 192H445.938V191ZM443.812 179.125L444.812 179.11L444.763 175.794L442.971 178.585L443.812 179.125ZM435.062 188.062L434.543 187.208L434.538 187.211L435.062 188.062ZM415.188 188.75L414.671 189.606L414.681 189.612L415.188 188.75ZM409.75 183L408.83 183.392L408.833 183.399L408.836 183.406L409.75 183ZM408 144.562L407.012 144.717L407.013 144.722L408 144.562ZM406 141.625L405.5 142.491L405.507 142.495L405.514 142.499L406 141.625ZM399.938 140.688H398.938V141.688H399.938V140.688ZM399.938 137.812V136.812H398.938V137.812H399.938ZM417.312 137.812H418.312V136.812H417.312V137.812ZM417.938 180.938L416.97 181.192L417.938 180.938ZM421.125 185.125L420.548 185.941L420.554 185.946L420.561 185.951L421.125 185.125ZM436.25 183.75L436.831 184.564L436.839 184.558L436.25 183.75ZM442.188 177.062L441.278 176.647L441.274 176.655L442.188 177.062ZM442 142.062L441.293 142.77L441.309 142.786L441.326 142.801L442 142.062ZM434.875 140.688H433.875V141.688H434.875V140.688ZM434.875 137.812V136.812H433.875V137.812H434.875ZM451.75 137.812V171.375H453.75V137.812H451.75ZM451.75 171.375C451.75 176.937 451.832 180.504 452.007 181.992L453.993 181.758C453.835 180.413 453.75 176.979 453.75 171.375H451.75ZM452.007 181.992C452.202 183.654 452.935 184.995 454.25 185.889L455.375 184.236C454.606 183.713 454.131 182.929 453.993 181.758L452.007 181.992ZM454.265 185.899C455.613 186.781 457.793 187.125 460.562 187.125V185.125C457.832 185.125 456.179 184.761 455.36 184.226L454.265 185.899ZM459.562 186.125V189H461.562V186.125H459.562ZM460.549 188C454.189 188.084 449.399 188.75 446.294 190.081L447.081 191.919C449.809 190.75 454.269 190.083 460.576 190L460.549 188ZM446.688 190H445.938V192H446.688V190ZM446.802 190.497C445.608 188.445 444.895 184.716 444.812 179.11L442.813 179.14C442.896 184.784 443.6 188.971 445.073 191.503L446.802 190.497ZM442.971 178.585C440.494 182.443 437.679 185.302 434.543 187.208L435.582 188.917C439.029 186.823 442.048 183.724 444.654 179.665L442.971 178.585ZM434.538 187.211C431.452 189.11 428.031 190.062 424.25 190.062V192.062C428.386 192.062 432.173 191.015 435.587 188.914L434.538 187.211ZM424.25 190.062C420.989 190.062 418.147 189.329 415.694 187.888L414.681 189.612C417.478 191.255 420.678 192.062 424.25 192.062V190.062ZM415.704 187.894C413.211 186.39 411.562 184.615 410.664 182.594L408.836 183.406C409.938 185.885 411.914 187.943 414.671 189.606L415.704 187.894ZM410.67 182.608C409.792 180.547 409.312 177.315 409.312 172.812H407.312C407.312 177.393 407.791 180.953 408.83 183.392L410.67 182.608ZM409.312 172.812V155.375H407.312V172.812H409.312ZM409.312 155.375C409.312 149.495 409.211 145.794 408.987 144.403L407.013 144.722C407.205 145.915 407.312 149.422 407.312 155.375H409.312ZM408.988 144.408C408.735 142.787 407.895 141.534 406.486 140.751L405.514 142.499C406.355 142.966 406.849 143.671 407.012 144.717L408.988 144.408ZM406.5 140.759C405.804 140.358 404.89 140.098 403.825 139.934C402.747 139.767 401.447 139.688 399.938 139.688V141.688C401.386 141.688 402.576 141.764 403.519 141.91C404.475 142.058 405.112 142.267 405.5 142.491L406.5 140.759ZM400.938 140.688V137.812H398.938V140.688H400.938ZM399.938 138.812H417.312V136.812H399.938V138.812ZM416.312 137.812V173.312H418.312V137.812H416.312ZM416.312 173.312C416.312 176.824 416.519 179.476 416.97 181.192L418.905 180.683C418.523 179.233 418.312 176.801 418.312 173.312H416.312ZM416.97 181.192C417.462 183.06 418.702 184.636 420.548 185.941L421.702 184.309C420.131 183.197 419.246 181.982 418.905 180.683L416.97 181.192ZM420.561 185.951C422.45 187.241 424.63 187.875 427.062 187.875V185.875C424.995 185.875 423.216 185.342 421.689 184.299L420.561 185.951ZM427.062 187.875C430.503 187.875 433.766 186.753 436.831 184.564L435.669 182.936C432.901 184.913 430.038 185.875 427.062 185.875V187.875ZM436.839 184.558C439.842 182.37 441.964 180.016 443.101 177.47L441.274 176.655C440.327 178.776 438.492 180.88 435.661 182.942L436.839 184.558ZM443.097 177.478C444.267 174.913 444.812 171.371 444.812 166.938H442.812C442.812 171.254 442.274 174.462 441.278 176.647L443.097 177.478ZM444.812 166.938V155.375H442.812V166.938H444.812ZM444.812 155.375C444.812 149.816 444.751 146.357 444.62 145.085L442.63 145.29C442.749 146.435 442.812 149.768 442.812 155.375H444.812ZM444.62 145.085C444.468 143.615 443.8 142.352 442.674 141.324L441.326 142.801C442.116 143.523 442.532 144.344 442.63 145.29L444.62 145.085ZM442.707 141.355C442.065 140.713 441.15 140.309 440.09 140.058C439.019 139.805 437.711 139.688 436.188 139.688V141.688C437.623 141.688 438.763 141.799 439.629 142.004C440.507 142.212 441.018 142.495 441.293 142.77L442.707 141.355ZM436.188 139.688H434.875V141.688H436.188V139.688ZM435.875 140.688V137.812H433.875V140.688H435.875ZM434.875 138.812H452.75V136.812H434.875V138.812Z" fill="#0A0A0A"/>
<path d="M483.75 103.062V171.438C483.75 176.896 483.812 180.333 483.938 181.75C484.104 183.167 484.708 184.25 485.75 185C486.792 185.75 488.646 186.125 491.312 186.125H492.812V189H465.438V186.125H467.188C469.688 186.125 471.458 185.792 472.5 185.125C473.583 184.417 474.229 183.438 474.438 182.188C474.646 180.938 474.75 177.354 474.75 171.438V120.812C474.75 115.438 474.271 112.062 473.312 110.688C472.354 109.271 470.021 108.562 466.312 108.562V105.688C468.854 105.688 471.833 105.396 475.25 104.812C478.708 104.229 481.083 103.646 482.375 103.062H483.75Z" fill="#0A0A0A"/>
<path d="M483.75 103.062H484.75V102.062H483.75V103.062ZM483.938 181.75L482.941 181.838L482.943 181.852L482.944 181.867L483.938 181.75ZM492.812 186.125H493.812V185.125H492.812V186.125ZM492.812 189V190H493.812V189H492.812ZM465.438 189H464.438V190H465.438V189ZM465.438 186.125V185.125H464.438V186.125H465.438ZM472.5 185.125L473.039 185.967L473.047 185.962L472.5 185.125ZM473.312 110.688L472.484 111.248L472.492 111.259L473.312 110.688ZM466.312 108.562H465.312V109.562H466.312V108.562ZM466.312 105.688V104.688H465.312V105.688H466.312ZM475.25 104.812L475.084 103.826L475.082 103.827L475.25 104.812ZM482.375 103.062V102.062H482.16L481.963 102.151L482.375 103.062ZM482.75 103.062V171.438H484.75V103.062H482.75ZM482.75 171.438C482.75 176.881 482.812 180.368 482.941 181.838L484.934 181.662C484.813 180.299 484.75 176.911 484.75 171.438H482.75ZM482.944 181.867C483.14 183.528 483.87 184.878 485.166 185.812L486.334 184.188C485.547 183.622 485.069 182.806 484.931 181.633L482.944 181.867ZM485.166 185.812C486.483 186.76 488.621 187.125 491.312 187.125V185.125C488.671 185.125 487.1 184.74 486.334 184.188L485.166 185.812ZM491.312 187.125H492.812V185.125H491.312V187.125ZM491.812 186.125V189H493.812V186.125H491.812ZM492.812 188H465.438V190H492.812V188ZM466.438 189V186.125H464.438V189H466.438ZM465.438 187.125H467.188V185.125H465.438V187.125ZM467.188 187.125C469.719 187.125 471.741 186.798 473.039 185.967L471.961 184.283C471.176 184.785 469.656 185.125 467.188 185.125V187.125ZM473.047 185.962C474.359 185.104 475.169 183.884 475.424 182.352L473.451 182.023C473.29 182.991 472.808 183.729 471.953 184.288L473.047 185.962ZM475.424 182.352C475.649 181 475.75 177.315 475.75 171.438H473.75C473.75 177.394 473.642 180.875 473.451 182.023L475.424 182.352ZM475.75 171.438V120.812H473.75V171.438H475.75ZM475.75 120.812C475.75 118.101 475.63 115.862 475.381 114.109C475.137 112.395 474.754 111.007 474.133 110.116L472.492 111.259C472.829 111.743 473.165 112.73 473.401 114.391C473.631 116.013 473.75 118.149 473.75 120.812H475.75ZM474.141 110.127C473.488 109.163 472.429 108.53 471.134 108.137C469.838 107.743 468.22 107.562 466.312 107.562V109.562C468.114 109.562 469.516 109.736 470.553 110.051C471.592 110.366 472.178 110.796 472.484 111.248L474.141 110.127ZM467.312 108.562V105.688H465.312V108.562H467.312ZM466.312 106.688C468.927 106.688 471.965 106.388 475.418 105.798L475.082 103.827C471.702 104.404 468.782 104.688 466.312 104.688V106.688ZM475.416 105.799C478.871 105.216 481.364 104.616 482.787 103.974L481.963 102.151C480.803 102.675 478.545 103.243 475.084 103.826L475.416 105.799ZM482.375 104.062H483.75V102.062H482.375V104.062Z" fill="#0A0A0A"/>
<path d="M551.375 179.625H553.688C553.312 186.75 549.812 190.312 543.188 190.312C540.354 190.312 538.104 189.562 536.438 188.062C534.812 186.562 533.75 184.333 533.25 181.375C529.083 184.333 525.271 186.562 521.812 188.062C518.396 189.562 515.333 190.312 512.625 190.312C509.167 190.312 506.188 189.312 503.688 187.312C501.188 185.312 499.938 182.667 499.938 179.375C499.938 175.083 502.021 171.333 506.188 168.125C510.396 164.917 516.188 161.792 523.562 158.75L533.25 154.812V152.312C533.25 148.771 533.021 146.208 532.562 144.625C532.104 143.042 530.917 141.625 529 140.375C527.083 139.125 524.562 138.5 521.438 138.5C515.188 138.5 511.708 140.583 511 144.75C510.333 149 508.583 151.125 505.75 151.125C503.208 151.125 501.938 149.917 501.938 147.5C501.938 145.125 503.625 142.583 507 139.875C510.375 137.125 515.625 135.75 522.75 135.75C528.042 135.75 532.146 136.583 535.062 138.25C537.979 139.917 539.896 141.812 540.812 143.938C541.771 146.062 542.25 149.312 542.25 153.688V174.375C542.25 179.208 542.5 182.312 543 183.688C543.5 185.062 544.583 185.75 546.25 185.75C549 185.75 550.708 183.708 551.375 179.625ZM533.25 157.75L526.438 160.5C515.688 164.875 510.312 170.375 510.312 177C510.312 179.625 511 181.75 512.375 183.375C513.75 184.958 515.542 185.75 517.75 185.75C519.708 185.75 521.979 185.104 524.562 183.812C527.146 182.521 530.042 180.583 533.25 178V157.75Z" fill="#0A0A0A"/>
<path d="M551.375 179.625V178.625H550.525L550.388 179.464L551.375 179.625ZM553.688 179.625L554.686 179.678L554.742 178.625H553.688V179.625ZM536.438 188.062L535.759 188.797L535.769 188.806L536.438 188.062ZM533.25 181.375L534.236 181.208L533.97 179.637L532.671 180.56L533.25 181.375ZM521.812 188.062L521.415 187.145L521.411 187.147L521.812 188.062ZM506.188 168.125L505.581 167.33L505.577 167.333L506.188 168.125ZM523.562 158.75L523.186 157.824L523.181 157.826L523.562 158.75ZM533.25 154.812L533.627 155.739L534.25 155.485V154.812H533.25ZM511 144.75L510.014 144.582L510.012 144.595L511 144.75ZM507 139.875L507.626 140.655L507.632 140.65L507 139.875ZM540.812 143.938L539.894 144.334L539.898 144.341L539.901 144.349L540.812 143.938ZM533.25 157.75H534.25V156.268L532.876 156.823L533.25 157.75ZM526.438 160.5L526.063 159.573L526.061 159.574L526.438 160.5ZM512.375 183.375L511.612 184.021L511.62 184.031L512.375 183.375ZM524.562 183.812L524.115 182.918L524.562 183.812ZM533.25 178L533.877 178.779L534.25 178.479V178H533.25ZM551.375 180.625H553.688V178.625H551.375V180.625ZM552.689 179.572C552.509 182.995 551.586 185.394 550.068 186.94C548.561 188.473 546.323 189.312 543.188 189.312V191.312C546.677 191.312 549.501 190.37 551.495 188.341C553.476 186.324 554.491 183.38 554.686 179.678L552.689 179.572ZM543.188 189.312C540.534 189.312 538.545 188.614 537.106 187.319L535.769 188.806C537.663 190.511 540.175 191.312 543.188 191.312V189.312ZM537.116 187.328C535.703 186.023 534.712 184.026 534.236 181.208L532.264 181.542C532.788 184.641 533.922 187.102 535.759 188.797L537.116 187.328ZM532.671 180.56C528.543 183.491 524.791 185.68 521.415 187.145L522.21 188.98C525.75 187.445 529.624 185.176 533.829 182.19L532.671 180.56ZM521.411 187.147C518.076 188.611 515.153 189.312 512.625 189.312V191.312C515.514 191.312 518.716 190.514 522.214 188.978L521.411 187.147ZM512.625 189.312C509.374 189.312 506.62 188.378 504.312 186.532L503.063 188.093C505.755 190.247 508.959 191.312 512.625 191.312V189.312ZM504.312 186.532C502.057 184.728 500.938 182.373 500.938 179.375H498.938C498.938 182.961 500.318 185.897 503.063 188.093L504.312 186.532ZM500.938 179.375C500.938 175.464 502.815 171.984 506.798 168.917L505.577 167.333C501.226 170.683 498.938 174.703 498.938 179.375H500.938ZM506.794 168.92C510.908 165.784 516.613 162.698 523.944 159.674L523.181 157.826C515.762 160.885 509.884 164.049 505.581 167.33L506.794 168.92ZM523.939 159.676L533.627 155.739L532.873 153.886L523.186 157.824L523.939 159.676ZM534.25 154.812V152.312H532.25V154.812H534.25ZM534.25 152.312C534.25 148.759 534.023 146.075 533.523 144.347L531.602 144.903C532.018 146.341 532.25 148.783 532.25 152.312H534.25ZM533.523 144.347C532.976 142.458 531.586 140.868 529.546 139.537L528.454 141.213C530.247 142.382 531.232 143.625 531.602 144.903L533.523 144.347ZM529.546 139.537C527.418 138.149 524.688 137.5 521.438 137.5V139.5C524.437 139.5 526.749 140.101 528.454 141.213L529.546 139.537ZM521.438 137.5C518.222 137.5 515.584 138.033 513.627 139.205C511.625 140.403 510.415 142.225 510.014 144.582L511.986 144.918C512.293 143.108 513.177 141.805 514.654 140.92C516.176 140.009 518.403 139.5 521.438 139.5V137.5ZM510.012 144.595C509.692 146.634 509.13 148.028 508.416 148.896C507.737 149.72 506.878 150.125 505.75 150.125V152.125C507.455 152.125 508.888 151.468 509.959 150.167C510.995 148.91 511.641 147.116 511.988 144.905L510.012 144.595ZM505.75 150.125C504.621 150.125 503.96 149.856 503.58 149.494C503.209 149.141 502.938 148.541 502.938 147.5H500.938C500.938 148.876 501.302 150.088 502.202 150.943C503.092 151.79 504.337 152.125 505.75 152.125V150.125ZM502.938 147.5C502.938 145.603 504.305 143.32 507.626 140.655L506.374 139.095C502.945 141.847 500.938 144.647 500.938 147.5H502.938ZM507.632 140.65C510.746 138.113 515.719 136.75 522.75 136.75V134.75C515.531 134.75 510.004 136.137 506.368 139.1L507.632 140.65ZM522.75 136.75C527.958 136.75 531.864 137.574 534.566 139.118L535.559 137.382C532.428 135.593 528.125 134.75 522.75 134.75V136.75ZM534.566 139.118C537.377 140.724 539.094 142.479 539.894 144.334L541.731 143.541C540.697 141.146 538.582 139.109 535.559 137.382L534.566 139.118ZM539.901 144.349C540.77 146.275 541.25 149.351 541.25 153.688H543.25C543.25 149.274 542.772 145.85 541.724 143.526L539.901 144.349ZM541.25 153.688V174.375H543.25V153.688H541.25ZM541.25 174.375C541.25 176.806 541.313 178.819 541.441 180.408C541.567 181.973 541.761 183.207 542.06 184.029L543.94 183.346C543.739 182.793 543.558 181.788 543.434 180.248C543.312 178.733 543.25 176.778 543.25 174.375H541.25ZM542.06 184.029C542.375 184.894 542.898 185.6 543.652 186.079C544.395 186.55 545.283 186.75 546.25 186.75V184.75C545.551 184.75 545.063 184.606 544.723 184.39C544.394 184.181 544.125 183.856 543.94 183.346L542.06 184.029ZM546.25 186.75C547.91 186.75 549.309 186.117 550.361 184.86C551.377 183.646 552.014 181.915 552.362 179.786L550.388 179.464C550.069 181.418 549.519 182.75 548.827 183.577C548.17 184.362 547.34 184.75 546.25 184.75V186.75ZM532.876 156.823L526.063 159.573L526.812 161.427L533.624 158.677L532.876 156.823ZM526.061 159.574C515.239 163.978 509.312 169.717 509.312 177H511.312C511.312 171.033 516.136 165.772 526.814 161.426L526.061 159.574ZM509.312 177C509.312 179.804 510.051 182.176 511.612 184.021L513.138 182.729C511.949 181.324 511.312 179.446 511.312 177H509.312ZM511.62 184.031C513.196 185.846 515.269 186.75 517.75 186.75V184.75C515.814 184.75 514.304 184.071 513.13 182.719L511.62 184.031ZM517.75 186.75C519.92 186.75 522.348 186.038 525.01 184.707L524.115 182.918C521.61 184.171 519.497 184.75 517.75 184.75V186.75ZM525.01 184.707C527.678 183.373 530.635 181.39 533.877 178.779L532.623 177.221C529.449 179.777 526.614 181.669 524.115 182.918L525.01 184.707ZM534.25 178V157.75H532.25V178H534.25Z" fill="#0A0A0A"/>
<path d="M247.676 246.77H224.256C224.146 248.383 224.092 249.586 224.092 250.379C224.092 256.285 225.008 260.729 226.84 263.709C228.699 266.662 231.461 268.139 235.125 268.139C240.102 268.139 243.629 265.91 245.707 261.453H247.676C246.801 264.242 245.064 266.43 242.467 268.016C239.869 269.574 237.039 270.354 233.977 270.354C231.133 270.354 228.439 269.643 225.896 268.221C223.381 266.771 221.316 264.734 219.703 262.109C218.09 259.484 217.283 256.299 217.283 252.553C217.283 247.248 218.842 242.846 221.959 239.346C225.076 235.818 228.973 234.055 233.648 234.055C238.051 234.055 241.455 235.395 243.861 238.074C246.268 240.754 247.539 243.652 247.676 246.77ZM240.498 245.129C240.58 244.5 240.621 243.939 240.621 243.447C240.621 241.041 239.91 239.182 238.488 237.869C237.094 236.529 235.371 235.859 233.32 235.859C228.344 235.859 225.377 238.949 224.42 245.129H240.498Z" fill="#0A0A0A"/>
<path d="M247.676 246.77V247.77H248.721L248.675 246.726L247.676 246.77ZM224.256 246.77V245.77H223.321L223.258 246.702L224.256 246.77ZM226.84 263.709L225.988 264.233L225.994 264.242L226.84 263.709ZM245.707 261.453V260.453H245.07L244.801 261.031L245.707 261.453ZM247.676 261.453L248.63 261.752L249.038 260.453H247.676V261.453ZM242.467 268.016L242.981 268.873L242.988 268.869L242.467 268.016ZM225.896 268.221L225.397 269.087L225.408 269.094L225.896 268.221ZM221.959 239.346L222.706 240.011L222.708 240.008L221.959 239.346ZM240.498 245.129V246.129H241.376L241.49 245.258L240.498 245.129ZM238.488 237.869L237.795 238.59L237.803 238.597L237.81 238.604L238.488 237.869ZM224.42 245.129L223.432 244.976L223.253 246.129H224.42V245.129ZM247.676 245.77H224.256V247.77H247.676V245.77ZM223.258 246.702C223.148 248.32 223.092 249.551 223.092 250.379H225.092C225.092 249.621 225.144 248.446 225.254 246.837L223.258 246.702ZM223.092 250.379C223.092 256.357 224.013 261.02 225.988 264.233L227.692 263.185C226.002 260.437 225.092 256.213 225.092 250.379H223.092ZM225.994 264.242C228.047 267.503 231.138 269.139 235.125 269.139V267.139C231.784 267.139 229.352 265.821 227.686 263.176L225.994 264.242ZM235.125 269.139C237.765 269.139 240.085 268.546 242.037 267.313C243.99 266.079 245.508 264.246 246.613 261.876L244.801 261.031C243.828 263.117 242.543 264.627 240.969 265.622C239.394 266.617 237.461 267.139 235.125 267.139V269.139ZM245.707 262.453H247.676V260.453H245.707V262.453ZM246.722 261.154C245.922 263.702 244.346 265.697 241.946 267.162L242.988 268.869C245.783 267.163 247.679 264.783 248.63 261.752L246.722 261.154ZM241.952 267.158C239.512 268.622 236.86 269.354 233.977 269.354V271.354C237.218 271.354 240.226 270.526 242.981 268.873L241.952 267.158ZM233.977 269.354C231.308 269.354 228.782 268.688 226.385 267.348L225.408 269.094C228.097 270.597 230.958 271.354 233.977 271.354V269.354ZM226.396 267.354C224.033 265.993 222.087 264.078 220.555 261.586L218.851 262.633C220.546 265.391 222.729 267.55 225.397 269.087L226.396 267.354ZM220.555 261.586C219.058 259.149 218.283 256.154 218.283 252.553H216.283C216.283 256.444 217.122 259.82 218.851 262.633L220.555 261.586ZM218.283 252.553C218.283 247.459 219.773 243.303 222.706 240.011L221.212 238.681C217.91 242.388 216.283 247.037 216.283 252.553H218.283ZM222.708 240.008C225.637 236.694 229.262 235.055 233.648 235.055V233.055C228.684 233.055 224.515 234.943 221.21 238.684L222.708 240.008ZM233.648 235.055C237.835 235.055 240.942 236.32 243.117 238.742L244.605 237.406C241.968 234.469 238.266 233.055 233.648 233.055V235.055ZM243.117 238.742C245.394 241.278 246.552 243.962 246.677 246.813L248.675 246.726C248.526 243.342 247.141 240.23 244.605 237.406L243.117 238.742ZM241.49 245.258C241.576 244.598 241.621 243.993 241.621 243.447H239.621C239.621 243.886 239.584 244.402 239.506 245L241.49 245.258ZM241.621 243.447C241.621 240.835 240.842 238.68 239.167 237.134L237.81 238.604C238.979 239.683 239.621 241.247 239.621 243.447H241.621ZM239.181 237.148C237.588 235.618 235.612 234.859 233.32 234.859V236.859C235.13 236.859 236.599 237.441 237.795 238.59L239.181 237.148ZM233.32 234.859C230.608 234.859 228.344 235.711 226.641 237.484C224.964 239.231 223.928 241.772 223.432 244.976L225.408 245.282C225.869 242.306 226.795 240.212 228.084 238.869C229.348 237.553 231.056 236.859 233.32 236.859V234.859ZM224.42 246.129H240.498V244.129H224.42V246.129Z" fill="#0A0A0A"/>
<path d="M264.754 234.055H265.861C266.49 235.75 266.846 238.061 266.928 240.986C268.896 238.662 270.961 236.926 273.121 235.777C275.281 234.629 277.537 234.055 279.889 234.055C282.568 234.055 284.756 234.615 286.451 235.736C288.174 236.857 289.281 238.238 289.773 239.879C290.266 241.492 290.512 243.857 290.512 246.975V257.475C290.512 261.357 290.58 263.723 290.717 264.57C290.854 265.418 291.277 266.061 291.988 266.498C292.727 266.908 294.066 267.113 296.008 267.113V269H278.822V267.113H279.602C281.57 267.113 282.855 266.826 283.457 266.252C284.059 265.678 284.4 265.008 284.482 264.242C284.564 263.477 284.605 261.221 284.605 257.475V246.646C284.605 243.994 284.469 242.107 284.195 240.986C283.949 239.838 283.252 238.826 282.104 237.951C280.982 237.076 279.547 236.639 277.797 236.639C275.801 236.639 273.887 237.24 272.055 238.443C270.25 239.619 268.541 241.396 266.928 243.775V257.475C266.928 261.357 266.996 263.723 267.133 264.57C267.297 265.418 267.734 266.061 268.445 266.498C269.184 266.908 270.537 267.113 272.506 267.113V269H255.525V267.113C257.412 267.113 258.725 266.922 259.463 266.539C260.201 266.156 260.652 265.582 260.816 264.816C261.008 264.023 261.104 261.576 261.104 257.475V247.467C261.104 243.557 261.021 241.191 260.857 240.371C260.721 239.523 260.283 238.895 259.545 238.484C258.834 238.047 257.494 237.828 255.525 237.828V235.941C258.533 235.613 261.609 234.984 264.754 234.055Z" fill="#0A0A0A"/>
<path d="M264.754 234.055V233.055H264.609L264.47 233.096L264.754 234.055ZM265.861 234.055L266.799 233.707L266.557 233.055H265.861V234.055ZM266.928 240.986L265.928 241.014L266.001 243.627L267.691 241.633L266.928 240.986ZM286.451 235.736L285.9 236.57L285.906 236.574L286.451 235.736ZM289.773 239.879L288.816 240.166L288.817 240.171L289.773 239.879ZM291.988 266.498L291.464 267.35L291.483 267.361L291.503 267.372L291.988 266.498ZM296.008 267.113H297.008V266.113H296.008V267.113ZM296.008 269V270H297.008V269H296.008ZM278.822 269H277.822V270H278.822V269ZM278.822 267.113V266.113H277.822V267.113H278.822ZM284.195 240.986L283.218 241.196L283.22 241.21L283.224 241.223L284.195 240.986ZM282.104 237.951L281.488 238.74L281.497 238.747L282.104 237.951ZM272.055 238.443L272.601 239.281L272.604 239.279L272.055 238.443ZM266.928 243.775L266.1 243.214L265.928 243.468V243.775H266.928ZM267.133 264.57L266.146 264.73L266.148 264.745L266.151 264.76L267.133 264.57ZM268.445 266.498L267.921 267.35L267.94 267.361L267.96 267.372L268.445 266.498ZM272.506 267.113H273.506V266.113H272.506V267.113ZM272.506 269V270H273.506V269H272.506ZM255.525 269H254.525V270H255.525V269ZM255.525 267.113V266.113H254.525V267.113H255.525ZM260.816 264.816L259.844 264.582L259.841 264.594L259.839 264.607L260.816 264.816ZM260.857 240.371L259.87 240.53L259.873 240.549L259.877 240.567L260.857 240.371ZM259.545 238.484L259.021 239.336L259.04 239.348L259.059 239.359L259.545 238.484ZM255.525 237.828H254.525V238.828H255.525V237.828ZM255.525 235.941L255.417 234.947L254.525 235.045V235.941H255.525ZM264.754 235.055H265.861V233.055H264.754V235.055ZM264.924 234.402C265.498 235.952 265.848 238.139 265.928 241.014L267.927 240.958C267.844 237.982 267.482 235.548 266.799 233.707L264.924 234.402ZM267.691 241.633C269.597 239.382 271.566 237.737 273.591 236.66L272.652 234.894C270.356 236.115 268.196 237.942 266.165 240.34L267.691 241.633ZM273.591 236.66C275.612 235.586 277.708 235.055 279.889 235.055V233.055C277.367 233.055 274.95 233.672 272.652 234.894L273.591 236.66ZM279.889 235.055C282.434 235.055 284.413 235.587 285.9 236.57L287.003 234.902C285.099 233.643 282.703 233.055 279.889 233.055V235.055ZM285.906 236.574C287.472 237.593 288.404 238.795 288.816 240.166L290.731 239.592C290.158 237.681 288.876 236.121 286.997 234.898L285.906 236.574ZM288.817 240.171C289.265 241.641 289.512 243.888 289.512 246.975H291.512C291.512 243.827 291.266 241.344 290.73 239.587L288.817 240.171ZM289.512 246.975V257.475H291.512V246.975H289.512ZM289.512 257.475C289.512 261.321 289.577 263.783 289.73 264.73L291.704 264.411C291.583 263.662 291.512 261.394 291.512 257.475H289.512ZM289.73 264.73C289.911 265.855 290.498 266.755 291.464 267.35L292.512 265.646C292.057 265.366 291.796 264.981 291.704 264.411L289.73 264.73ZM291.503 267.372C292.488 267.919 294.064 268.113 296.008 268.113V266.113C294.069 266.113 292.965 265.897 292.474 265.624L291.503 267.372ZM295.008 267.113V269H297.008V267.113H295.008ZM296.008 268H278.822V270H296.008V268ZM279.822 269V267.113H277.822V269H279.822ZM278.822 268.113H279.602V266.113H278.822V268.113ZM279.602 268.113C280.627 268.113 281.52 268.039 282.26 267.874C282.986 267.712 283.659 267.441 284.148 266.975L282.767 265.529C282.653 265.637 282.383 265.797 281.824 265.922C281.279 266.044 280.545 266.113 279.602 266.113V268.113ZM284.148 266.975C284.905 266.252 285.367 265.369 285.477 264.349L283.488 264.136C283.433 264.647 283.212 265.104 282.767 265.529L284.148 266.975ZM285.477 264.349C285.566 263.516 285.605 261.194 285.605 257.475H283.605C283.605 261.248 283.563 263.437 283.488 264.136L285.477 264.349ZM285.605 257.475V246.646H283.605V257.475H285.605ZM285.605 246.646C285.605 243.99 285.471 241.998 285.167 240.749L283.224 241.223C283.466 242.217 283.605 243.998 283.605 246.646H285.605ZM285.173 240.777C284.866 239.345 284.003 238.141 282.71 237.156L281.497 238.747C282.501 239.511 283.032 240.331 283.218 241.196L285.173 240.777ZM282.719 237.163C281.384 236.121 279.717 235.639 277.797 235.639V237.639C279.377 237.639 280.58 238.031 281.488 238.739L282.719 237.163ZM277.797 235.639C275.587 235.639 273.484 236.308 271.506 237.607L272.604 239.279C274.289 238.172 276.015 237.639 277.797 237.639V235.639ZM271.509 237.605C269.562 238.874 267.764 240.76 266.1 243.214L267.755 244.337C269.318 242.033 270.938 240.365 272.601 239.281L271.509 237.605ZM265.928 243.775V257.475H267.928V243.775H265.928ZM265.928 257.475C265.928 261.321 265.993 263.783 266.146 264.73L268.12 264.411C267.999 263.662 267.928 261.394 267.928 257.475H265.928ZM266.151 264.76C266.366 265.872 266.963 266.76 267.921 267.35L268.969 265.646C268.506 265.361 268.228 264.964 268.115 264.38L266.151 264.76ZM267.96 267.372C268.478 267.66 269.134 267.837 269.864 267.948C270.607 268.061 271.491 268.113 272.506 268.113V266.113C271.552 266.113 270.775 266.063 270.164 265.971C269.541 265.876 269.151 265.746 268.931 265.624L267.96 267.372ZM271.506 267.113V269H273.506V267.113H271.506ZM272.506 268H255.525V270H272.506V268ZM256.525 269V267.113H254.525V269H256.525ZM255.525 268.113C257.418 268.113 258.95 267.931 259.923 267.427L259.003 265.651C258.499 265.912 257.406 266.113 255.525 266.113V268.113ZM259.923 267.427C260.908 266.916 261.563 266.104 261.794 265.026L259.839 264.607C259.741 265.06 259.495 265.396 259.003 265.651L259.923 267.427ZM261.788 265.051C261.911 264.542 261.984 263.632 262.031 262.425C262.08 261.183 262.104 259.531 262.104 257.475H260.104C260.104 259.52 260.08 261.142 260.033 262.347C259.984 263.588 259.913 264.298 259.844 264.582L261.788 265.051ZM262.104 257.475V247.467H260.104V257.475H262.104ZM262.104 247.467C262.104 245.507 262.083 243.925 262.041 242.726C262.001 241.553 261.938 240.677 261.838 240.175L259.877 240.567C259.94 240.885 260.001 241.602 260.043 242.795C260.083 243.961 260.104 245.517 260.104 247.467H262.104ZM261.845 240.212C261.66 239.068 261.042 238.172 260.031 237.61L259.059 239.359C259.524 239.617 259.781 239.979 259.87 240.53L261.845 240.212ZM260.069 237.633C259.555 237.316 258.896 237.124 258.168 237.005C257.427 236.884 256.542 236.828 255.525 236.828V238.828C256.478 238.828 257.247 238.881 257.846 238.979C258.458 239.079 258.824 239.215 259.021 239.336L260.069 237.633ZM256.525 237.828V235.941H254.525V237.828H256.525ZM255.634 236.936C258.706 236.6 261.84 235.959 265.037 235.014L264.47 233.096C261.378 234.01 258.361 234.626 255.417 234.947L255.634 236.936Z" fill="#0A0A0A"/>
<path d="M333.676 246.77H310.256C310.146 248.383 310.092 249.586 310.092 250.379C310.092 256.285 311.008 260.729 312.84 263.709C314.699 266.662 317.461 268.139 321.125 268.139C326.102 268.139 329.629 265.91 331.707 261.453H333.676C332.801 264.242 331.064 266.43 328.467 268.016C325.869 269.574 323.039 270.354 319.977 270.354C317.133 270.354 314.439 269.643 311.896 268.221C309.381 266.771 307.316 264.734 305.703 262.109C304.09 259.484 303.283 256.299 303.283 252.553C303.283 247.248 304.842 242.846 307.959 239.346C311.076 235.818 314.973 234.055 319.648 234.055C324.051 234.055 327.455 235.395 329.861 238.074C332.268 240.754 333.539 243.652 333.676 246.77ZM326.498 245.129C326.58 244.5 326.621 243.939 326.621 243.447C326.621 241.041 325.91 239.182 324.488 237.869C323.094 236.529 321.371 235.859 319.32 235.859C314.344 235.859 311.377 238.949 310.42 245.129H326.498Z" fill="#0A0A0A"/>
<path d="M333.676 246.77V247.77H334.721L334.675 246.726L333.676 246.77ZM310.256 246.77V245.77H309.321L309.258 246.702L310.256 246.77ZM312.84 263.709L311.988 264.233L311.994 264.242L312.84 263.709ZM331.707 261.453V260.453H331.07L330.801 261.031L331.707 261.453ZM333.676 261.453L334.63 261.752L335.038 260.453H333.676V261.453ZM328.467 268.016L328.981 268.873L328.988 268.869L328.467 268.016ZM311.896 268.221L311.397 269.087L311.408 269.094L311.896 268.221ZM307.959 239.346L308.706 240.011L308.708 240.008L307.959 239.346ZM326.498 245.129V246.129H327.376L327.49 245.258L326.498 245.129ZM324.488 237.869L323.795 238.59L323.803 238.597L323.81 238.604L324.488 237.869ZM310.42 245.129L309.432 244.976L309.253 246.129H310.42V245.129ZM333.676 245.77H310.256V247.77H333.676V245.77ZM309.258 246.702C309.148 248.32 309.092 249.551 309.092 250.379H311.092C311.092 249.621 311.144 248.446 311.254 246.837L309.258 246.702ZM309.092 250.379C309.092 256.357 310.013 261.02 311.988 264.233L313.692 263.185C312.002 260.437 311.092 256.213 311.092 250.379H309.092ZM311.994 264.242C314.047 267.503 317.138 269.139 321.125 269.139V267.139C317.784 267.139 315.352 265.821 313.686 263.176L311.994 264.242ZM321.125 269.139C323.765 269.139 326.085 268.546 328.037 267.313C329.99 266.079 331.508 264.246 332.613 261.876L330.801 261.031C329.828 263.117 328.543 264.627 326.969 265.622C325.394 266.617 323.461 267.139 321.125 267.139V269.139ZM331.707 262.453H333.676V260.453H331.707V262.453ZM332.722 261.154C331.922 263.702 330.346 265.697 327.946 267.162L328.988 268.869C331.783 267.163 333.679 264.783 334.63 261.752L332.722 261.154ZM327.952 267.158C325.512 268.622 322.86 269.354 319.977 269.354V271.354C323.218 271.354 326.226 270.526 328.981 268.873L327.952 267.158ZM319.977 269.354C317.308 269.354 314.782 268.688 312.385 267.348L311.408 269.094C314.097 270.597 316.958 271.354 319.977 271.354V269.354ZM312.396 267.354C310.033 265.993 308.087 264.078 306.555 261.586L304.851 262.633C306.546 265.391 308.729 267.55 311.397 269.087L312.396 267.354ZM306.555 261.586C305.058 259.149 304.283 256.154 304.283 252.553H302.283C302.283 256.444 303.122 259.82 304.851 262.633L306.555 261.586ZM304.283 252.553C304.283 247.459 305.773 243.303 308.706 240.011L307.212 238.681C303.91 242.388 302.283 247.037 302.283 252.553H304.283ZM308.708 240.008C311.637 236.694 315.262 235.055 319.648 235.055V233.055C314.684 233.055 310.515 234.943 307.21 238.684L308.708 240.008ZM319.648 235.055C323.835 235.055 326.942 236.32 329.117 238.742L330.605 237.406C327.968 234.469 324.266 233.055 319.648 233.055V235.055ZM329.117 238.742C331.394 241.278 332.552 243.962 332.677 246.813L334.675 246.726C334.526 243.342 333.141 240.23 330.605 237.406L329.117 238.742ZM327.49 245.258C327.576 244.598 327.621 243.993 327.621 243.447H325.621C325.621 243.886 325.584 244.402 325.506 245L327.49 245.258ZM327.621 243.447C327.621 240.835 326.842 238.68 325.167 237.134L323.81 238.604C324.979 239.683 325.621 241.247 325.621 243.447H327.621ZM325.181 237.148C323.588 235.618 321.612 234.859 319.32 234.859V236.859C321.13 236.859 322.599 237.441 323.795 238.59L325.181 237.148ZM319.32 234.859C316.608 234.859 314.344 235.711 312.641 237.484C310.964 239.231 309.928 241.772 309.432 244.976L311.408 245.282C311.869 242.306 312.795 240.212 314.084 238.869C315.348 237.553 317.056 236.859 319.32 236.859V234.859ZM310.42 246.129H326.498V244.129H310.42V246.129Z" fill="#0A0A0A"/>
<path d="M353.146 242.627C354.076 240.193 355.58 238.156 357.658 236.516C359.764 234.875 361.814 234.055 363.811 234.055C365.615 234.055 367.037 234.615 368.076 235.736C369.115 236.857 369.635 238.006 369.635 239.182C369.635 239.975 369.361 240.658 368.814 241.232C368.295 241.807 367.652 242.094 366.887 242.094C365.52 242.094 364.48 241.082 363.77 239.059C363.277 237.691 362.539 237.008 361.555 237.008C360.379 237.008 358.971 237.814 357.33 239.428C355.689 241.014 354.637 242.668 354.172 244.391C353.707 246.113 353.475 248.479 353.475 251.486V257.475C353.475 261.057 353.516 263.312 353.598 264.242C353.707 265.172 354.104 265.883 354.787 266.375C355.471 266.867 356.688 267.113 358.438 267.113H359.586V269H341.744V267.113H342.605C344.246 267.113 345.408 266.895 346.092 266.457C346.803 265.992 347.227 265.35 347.363 264.529C347.5 263.709 347.568 261.357 347.568 257.475V248C347.568 244.391 347.514 242.135 347.404 241.232C347.322 240.303 346.939 239.592 346.256 239.1C345.572 238.58 344.355 238.32 342.605 238.32H341.744V236.475C344.314 236.174 347.678 235.367 351.834 234.055C352.627 236.215 353.064 239.072 353.146 242.627Z" fill="#0A0A0A"/>
<path d="M353.146 242.627L352.147 242.65L354.081 242.984L353.146 242.627ZM357.658 236.516L357.044 235.727L357.039 235.731L357.658 236.516ZM368.814 241.232L368.09 240.543L368.081 240.552L368.073 240.562L368.814 241.232ZM363.77 239.059L364.713 238.727L364.71 238.72L363.77 239.059ZM357.33 239.428L358.025 240.147L358.031 240.141L357.33 239.428ZM353.598 264.242L352.602 264.33L352.603 264.345L352.605 264.359L353.598 264.242ZM359.586 267.113H360.586V266.113H359.586V267.113ZM359.586 269V270H360.586V269H359.586ZM341.744 269H340.744V270H341.744V269ZM341.744 267.113V266.113H340.744V267.113H341.744ZM346.092 266.457L346.631 267.299L346.639 267.294L346.092 266.457ZM347.404 241.232L346.408 241.32L346.41 241.337L346.412 241.353L347.404 241.232ZM346.256 239.1L345.651 239.896L345.661 239.904L345.672 239.911L346.256 239.1ZM341.744 238.32H340.744V239.32H341.744V238.32ZM341.744 236.475L341.628 235.481L340.744 235.585V236.475H341.744ZM351.834 234.055L352.773 233.71L352.444 232.813L351.533 233.101L351.834 234.055ZM354.081 242.984C354.945 240.722 356.339 238.831 358.278 237.301L357.039 235.731C354.821 237.481 353.207 239.665 352.212 242.27L354.081 242.984ZM358.273 237.304C360.262 235.755 362.102 235.055 363.811 235.055V233.055C361.527 233.055 359.266 233.995 357.044 235.727L358.273 237.304ZM363.811 235.055C365.392 235.055 366.527 235.536 367.343 236.416L368.81 235.057C367.547 233.694 365.839 233.055 363.811 233.055V235.055ZM367.343 236.416C368.263 237.409 368.635 238.326 368.635 239.182H370.635C370.635 237.685 369.967 236.305 368.81 235.057L367.343 236.416ZM368.635 239.182C368.635 239.718 368.46 240.154 368.09 240.543L369.539 241.922C370.263 241.162 370.635 240.231 370.635 239.182H368.635ZM368.073 240.562C367.74 240.929 367.366 241.094 366.887 241.094V243.094C367.939 243.094 368.849 242.684 369.556 241.903L368.073 240.562ZM366.887 241.094C366.169 241.094 365.376 240.615 364.713 238.727L362.826 239.39C363.585 241.549 364.87 243.094 366.887 243.094V241.094ZM364.71 238.72C364.433 237.948 364.053 237.275 363.526 236.787C362.977 236.278 362.305 236.008 361.555 236.008V238.008C361.789 238.008 361.978 238.079 362.167 238.254C362.378 238.45 362.614 238.802 362.829 239.397L364.71 238.72ZM361.555 236.008C359.958 236.008 358.3 237.072 356.629 238.715L358.031 240.141C359.641 238.557 360.8 238.008 361.555 238.008V236.008ZM356.635 238.709C354.9 240.386 353.73 242.191 353.206 244.13L355.137 244.651C355.544 243.145 356.479 241.642 358.025 240.147L356.635 238.709ZM353.206 244.13C352.708 245.976 352.475 248.442 352.475 251.486H354.475C354.475 248.515 354.706 246.251 355.137 244.651L353.206 244.13ZM352.475 251.486V257.475H354.475V251.486H352.475ZM352.475 257.475C352.475 261.041 352.515 263.347 352.602 264.33L354.594 264.154C354.516 263.278 354.475 261.072 354.475 257.475H352.475ZM352.605 264.359C352.743 265.533 353.265 266.511 354.203 267.187L355.371 265.563C354.942 265.254 354.671 264.811 354.591 264.125L352.605 264.359ZM354.203 267.187C355.162 267.877 356.662 268.113 358.438 268.113V266.113C356.713 266.113 355.779 265.857 355.371 265.563L354.203 267.187ZM358.438 268.113H359.586V266.113H358.438V268.113ZM358.586 267.113V269H360.586V267.113H358.586ZM359.586 268H341.744V270H359.586V268ZM342.744 269V267.113H340.744V269H342.744ZM341.744 268.113H342.605V266.113H341.744V268.113ZM342.605 268.113C344.277 268.113 345.691 267.901 346.631 267.299L345.553 265.615C345.126 265.888 344.215 266.113 342.605 266.113V268.113ZM346.639 267.294C347.578 266.68 348.166 265.796 348.35 264.694L346.377 264.365C346.287 264.903 346.027 265.304 345.545 265.62L346.639 267.294ZM348.35 264.694C348.503 263.771 348.568 261.318 348.568 257.475H346.568C346.568 261.397 346.497 263.647 346.377 264.365L348.35 264.694ZM348.568 257.475V248H346.568V257.475H348.568ZM348.568 248C348.568 244.413 348.515 242.088 348.397 241.112L346.412 241.353C346.512 242.182 346.568 244.368 346.568 248H348.568ZM348.4 241.145C348.296 239.96 347.787 238.97 346.84 238.288L345.672 239.911C346.092 240.214 346.349 240.645 346.408 241.32L348.4 241.145ZM346.861 238.303C345.897 237.571 344.386 237.32 342.605 237.32V239.32C344.325 239.32 345.247 239.589 345.651 239.896L346.861 238.303ZM342.605 237.32H341.744V239.32H342.605V237.32ZM342.744 238.32V236.475H340.744V238.32H342.744ZM341.86 237.468C344.522 237.156 347.953 236.329 352.135 235.008L351.533 233.101C347.402 234.406 344.107 235.191 341.628 235.481L341.86 237.468ZM350.895 234.399C351.636 236.416 352.066 239.152 352.147 242.65L354.146 242.604C354.063 238.993 353.618 236.014 352.773 233.71L350.895 234.399Z" fill="#0A0A0A"/>
<path d="M409.309 262.848H410.826C410.58 267.523 408.283 269.861 403.936 269.861C402.076 269.861 400.6 269.369 399.506 268.385C398.439 267.4 397.742 265.938 397.414 263.996C394.68 265.938 392.178 267.4 389.908 268.385C387.666 269.369 385.656 269.861 383.879 269.861C381.609 269.861 379.654 269.205 378.014 267.893C376.373 266.58 375.553 264.844 375.553 262.684C375.553 259.867 376.92 257.406 379.654 255.301C382.416 253.195 386.217 251.145 391.057 249.148L397.414 246.564V244.924C397.414 242.6 397.264 240.918 396.963 239.879C396.662 238.84 395.883 237.91 394.625 237.09C393.367 236.27 391.713 235.859 389.662 235.859C385.561 235.859 383.277 237.227 382.812 239.961C382.375 242.75 381.227 244.145 379.367 244.145C377.699 244.145 376.865 243.352 376.865 241.766C376.865 240.207 377.973 238.539 380.188 236.762C382.402 234.957 385.848 234.055 390.523 234.055C393.996 234.055 396.689 234.602 398.604 235.695C400.518 236.789 401.775 238.033 402.377 239.428C403.006 240.822 403.32 242.955 403.32 245.826V259.402C403.32 262.574 403.484 264.611 403.812 265.514C404.141 266.416 404.852 266.867 405.945 266.867C407.75 266.867 408.871 265.527 409.309 262.848ZM397.414 248.492L392.943 250.297C385.889 253.168 382.361 256.777 382.361 261.125C382.361 262.848 382.812 264.242 383.715 265.309C384.617 266.348 385.793 266.867 387.242 266.867C388.527 266.867 390.018 266.443 391.713 265.596C393.408 264.748 395.309 263.477 397.414 261.781V248.492Z" fill="#0A0A0A"/>
<path d="M409.309 262.848V261.848H408.459L408.322 262.687L409.309 262.848ZM410.826 262.848L411.825 262.9L411.88 261.848H410.826V262.848ZM399.506 268.385L398.828 269.12L398.837 269.128L399.506 268.385ZM397.414 263.996L398.4 263.829L398.135 262.258L396.835 263.181L397.414 263.996ZM389.908 268.385L389.51 267.467L389.506 267.469L389.908 268.385ZM379.654 255.301L379.048 254.506L379.044 254.508L379.654 255.301ZM391.057 249.148L390.68 248.222L390.675 248.224L391.057 249.148ZM397.414 246.564L397.791 247.491L398.414 247.237V246.564H397.414ZM382.812 239.961L381.827 239.793L381.825 239.806L382.812 239.961ZM380.188 236.762L380.813 237.542L380.819 237.537L380.188 236.762ZM402.377 239.428L401.459 239.824L401.462 239.831L401.465 239.839L402.377 239.428ZM397.414 248.492H398.414V247.01L397.04 247.565L397.414 248.492ZM392.943 250.297L392.569 249.37L392.566 249.371L392.943 250.297ZM383.715 265.309L382.951 265.955L382.96 265.964L383.715 265.309ZM397.414 261.781L398.041 262.56L398.414 262.26V261.781H397.414ZM409.309 263.848H410.826V261.848H409.309V263.848ZM409.828 262.795C409.712 264.993 409.122 266.474 408.206 267.407C407.301 268.328 405.932 268.861 403.936 268.861V270.861C406.287 270.861 408.24 270.225 409.632 268.809C411.012 267.404 411.694 265.378 411.825 262.9L409.828 262.795ZM403.936 268.861C402.256 268.861 401.04 268.42 400.175 267.641L398.837 269.128C400.159 270.318 401.897 270.861 403.936 270.861V268.861ZM400.184 267.65C399.33 266.861 398.704 265.63 398.4 263.829L396.428 264.163C396.78 266.245 397.549 267.939 398.828 269.12L400.184 267.65ZM396.835 263.181C394.139 265.095 391.698 266.518 389.51 267.467L390.306 269.302C392.657 268.282 395.221 266.78 397.993 264.811L396.835 263.181ZM389.506 267.469C387.346 268.418 385.476 268.861 383.879 268.861V270.861C385.836 270.861 387.986 270.321 390.31 269.3L389.506 267.469ZM383.879 268.861C381.817 268.861 380.087 268.271 378.638 267.112L377.389 268.673C379.222 270.14 381.402 270.861 383.879 270.861V268.861ZM378.638 267.112C377.243 265.995 376.553 264.55 376.553 262.684H374.553C374.553 265.138 375.503 267.165 377.389 268.673L378.638 267.112ZM376.553 262.684C376.553 260.248 377.714 258.057 380.264 256.093L379.044 254.508C376.126 256.756 374.553 259.487 374.553 262.684H376.553ZM380.261 256.096C382.928 254.063 386.642 252.051 391.438 250.073L390.675 248.224C385.791 250.238 381.904 252.328 379.048 254.506L380.261 256.096ZM391.433 250.075L397.791 247.491L397.038 245.638L390.68 248.222L391.433 250.075ZM398.414 246.564V244.924H396.414V246.564H398.414ZM398.414 244.924C398.414 242.588 398.266 240.785 397.923 239.601L396.002 240.157C396.261 241.051 396.414 242.611 396.414 244.924H398.414ZM397.923 239.601C397.534 238.256 396.552 237.153 395.171 236.252L394.079 237.927C395.213 238.668 395.79 239.424 396.002 240.157L397.923 239.601ZM395.171 236.252C393.702 235.294 391.838 234.859 389.662 234.859V236.859C391.588 236.859 393.033 237.245 394.079 237.927L395.171 236.252ZM389.662 234.859C387.52 234.859 385.719 235.213 384.36 236.027C382.956 236.868 382.106 238.152 381.827 239.793L383.798 240.129C383.984 239.035 384.508 238.269 385.387 237.743C386.311 237.189 387.702 236.859 389.662 236.859V234.859ZM381.825 239.806C381.619 241.115 381.265 241.961 380.851 242.463C380.473 242.922 380.008 243.145 379.367 243.145V245.145C380.586 245.145 381.624 244.67 382.395 243.734C383.13 242.842 383.568 241.596 383.8 240.116L381.825 239.806ZM379.367 243.145C378.675 243.145 378.342 242.979 378.18 242.825C378.027 242.68 377.865 242.391 377.865 241.766H375.865C375.865 242.726 376.12 243.627 376.802 244.275C377.474 244.913 378.391 245.145 379.367 245.145V243.145ZM377.865 241.766C377.865 240.685 378.652 239.276 380.813 237.542L379.562 235.982C377.293 237.802 375.865 239.729 375.865 241.766H377.865ZM380.819 237.537C382.773 235.945 385.942 235.055 390.523 235.055V233.055C385.753 233.055 382.032 233.969 379.556 235.986L380.819 237.537ZM390.523 235.055C393.913 235.055 396.407 235.592 398.107 236.564L399.1 234.827C396.971 233.611 394.079 233.055 390.523 233.055V235.055ZM398.107 236.564C399.915 237.597 400.974 238.7 401.459 239.824L403.295 239.032C402.577 237.366 401.12 235.982 399.1 234.827L398.107 236.564ZM401.465 239.839C402.005 241.035 402.32 242.994 402.32 245.826H404.32C404.32 242.916 404.007 240.609 403.289 239.017L401.465 239.839ZM402.32 245.826V259.402H404.32V245.826H402.32ZM402.32 259.402C402.32 261.002 402.362 262.334 402.447 263.389C402.53 264.42 402.66 265.27 402.873 265.855L404.752 265.172C404.637 264.855 404.521 264.235 404.44 263.229C404.361 262.247 404.32 260.974 404.32 259.402H402.32ZM402.873 265.855C403.101 266.484 403.488 267.013 404.056 267.373C404.613 267.727 405.265 267.867 405.945 267.867V265.867C405.532 265.867 405.281 265.782 405.128 265.684C404.984 265.594 404.852 265.446 404.752 265.172L402.873 265.855ZM405.945 267.867C407.132 267.867 408.149 267.41 408.907 266.504C409.629 265.64 410.063 264.436 410.296 263.009L408.322 262.687C408.117 263.939 407.771 264.744 407.373 265.221C407.009 265.655 406.563 265.867 405.945 265.867V267.867ZM397.04 247.565L392.569 249.37L393.318 251.224L397.788 249.419L397.04 247.565ZM392.566 249.371C385.44 252.271 381.361 256.12 381.361 261.125H383.361C383.361 257.435 386.337 254.065 393.32 251.223L392.566 249.371ZM381.361 261.125C381.361 263.027 381.863 264.668 382.951 265.955L384.478 264.663C383.762 263.816 383.361 262.668 383.361 261.125H381.361ZM382.96 265.964C384.063 267.235 385.521 267.867 387.242 267.867V265.867C386.065 265.867 385.171 265.46 384.47 264.653L382.96 265.964ZM387.242 267.867C388.739 267.867 390.387 267.377 392.16 266.49L391.266 264.701C389.648 265.51 388.316 265.867 387.242 265.867V267.867ZM392.16 266.49C393.94 265.6 395.902 264.283 398.041 262.56L396.787 261.002C394.716 262.67 392.876 263.896 391.266 264.701L392.16 266.49ZM398.414 261.781V248.492H396.414V261.781H398.414Z" fill="#0A0A0A"/>
<path d="M437.287 237.295H427.156V257.598C427.156 260.715 427.293 262.82 427.566 263.914C427.84 264.98 428.414 265.842 429.289 266.498C430.191 267.154 431.148 267.482 432.16 267.482C434.129 267.482 435.838 266.361 437.287 264.119L438.6 264.898C437.752 266.703 436.494 268.07 434.826 269C433.186 269.902 431.518 270.354 429.822 270.354C427.854 270.354 426.117 269.779 424.613 268.631C423.137 267.455 422.207 266.088 421.824 264.529C421.469 262.971 421.291 260.236 421.291 256.326V237.295H416.41V235.408C418.652 235.354 420.662 234.41 422.439 232.578C424.217 230.746 425.352 228.176 425.844 224.867H427.156V235.408H437.287V237.295Z" fill="#0A0A0A"/>
<path d="M437.287 237.295V238.295H438.287V237.295H437.287ZM427.156 237.295V236.295H426.156V237.295H427.156ZM427.566 263.914L426.596 264.157L426.598 264.162L427.566 263.914ZM429.289 266.498L428.689 267.298L428.695 267.302L428.701 267.307L429.289 266.498ZM437.287 264.119L437.798 263.259L436.97 262.768L436.447 263.576L437.287 264.119ZM438.6 264.898L439.505 265.324L439.891 264.502L439.11 264.039L438.6 264.898ZM434.826 269L435.308 269.876L435.313 269.873L434.826 269ZM424.613 268.631L423.99 269.413L423.998 269.419L424.006 269.426L424.613 268.631ZM421.824 264.529L420.849 264.752L420.851 264.76L420.853 264.768L421.824 264.529ZM421.291 237.295H422.291V236.295H421.291V237.295ZM416.41 237.295H415.41V238.295H416.41V237.295ZM416.41 235.408L416.386 234.409L415.41 234.432V235.408H416.41ZM425.844 224.867V223.867H424.982L424.855 224.72L425.844 224.867ZM427.156 224.867H428.156V223.867H427.156V224.867ZM427.156 235.408H426.156V236.408H427.156V235.408ZM437.287 235.408H438.287V234.408H437.287V235.408ZM437.287 236.295H427.156V238.295H437.287V236.295ZM426.156 237.295V257.598H428.156V237.295H426.156ZM426.156 257.598C426.156 260.701 426.289 262.926 426.596 264.157L428.537 263.672C428.297 262.715 428.156 260.729 428.156 257.598H426.156ZM426.598 264.162C426.927 265.448 427.631 266.504 428.689 267.298L429.889 265.698C429.197 265.179 428.752 264.513 428.535 263.666L426.598 264.162ZM428.701 267.307C429.756 268.074 430.915 268.482 432.16 268.482V266.482C431.382 266.482 430.627 266.235 429.877 265.689L428.701 267.307ZM432.16 268.482C434.583 268.482 436.566 267.077 438.127 264.662L436.447 263.576C435.11 265.646 433.674 266.482 432.16 266.482V268.482ZM436.777 264.979L438.089 265.758L439.11 264.039L437.798 263.259L436.777 264.979ZM437.694 264.473C436.932 266.097 435.816 267.303 434.339 268.127L435.313 269.873C437.172 268.837 438.572 267.309 439.505 265.324L437.694 264.473ZM434.344 268.124C432.836 268.954 431.332 269.354 429.822 269.354V271.354C431.703 271.354 433.536 270.851 435.308 269.876L434.344 268.124ZM429.822 269.354C428.063 269.354 426.542 268.846 425.22 267.836L424.006 269.426C425.692 270.713 427.644 271.354 429.822 271.354V269.354ZM425.236 267.849C423.901 266.785 423.117 265.598 422.795 264.291L420.853 264.768C421.298 266.577 422.372 268.125 423.99 269.413L425.236 267.849ZM422.799 264.307C422.471 262.87 422.291 260.238 422.291 256.326H420.291C420.291 260.235 420.466 263.071 420.849 264.752L422.799 264.307ZM422.291 256.326V237.295H420.291V256.326H422.291ZM421.291 236.295H416.41V238.295H421.291V236.295ZM417.41 237.295V235.408H415.41V237.295H417.41ZM416.435 236.408C418.975 236.346 421.225 235.266 423.157 233.274L421.722 231.882C420.099 233.554 418.329 234.361 416.386 234.409L416.435 236.408ZM423.157 233.274C425.12 231.252 426.319 228.466 426.833 225.014L424.855 224.72C424.384 227.886 423.314 230.24 421.722 231.882L423.157 233.274ZM425.844 225.867H427.156V223.867H425.844V225.867ZM426.156 224.867V235.408H428.156V224.867H426.156ZM427.156 236.408H437.287V234.408H427.156V236.408ZM436.287 235.408V237.295H438.287V235.408H436.287Z" fill="#0A0A0A"/>
<path d="M444.117 252.143C444.117 247.002 445.84 242.709 449.285 239.264C452.73 235.791 456.969 234.055 462 234.055C467.059 234.055 471.311 235.791 474.756 239.264C478.201 242.736 479.924 247.029 479.924 252.143C479.924 257.803 478.174 262.26 474.674 265.514C471.174 268.74 466.949 270.354 462 270.354C457.051 270.354 452.826 268.713 449.326 265.432C445.854 262.123 444.117 257.693 444.117 252.143ZM450.926 252.348C450.926 258.309 451.896 262.492 453.838 264.898C455.779 267.277 458.5 268.467 462 268.467C465.582 268.467 468.316 267.277 470.203 264.898C472.117 262.492 473.074 258.309 473.074 252.348C473.074 246.441 472.131 242.23 470.244 239.715C468.357 237.199 465.609 235.941 462 235.941C458.418 235.941 455.67 237.199 453.756 239.715C451.869 242.203 450.926 246.414 450.926 252.348Z" fill="#0A0A0A"/>
<path d="M449.285 239.264L449.992 239.971L449.995 239.968L449.285 239.264ZM474.674 265.514L475.352 266.249L475.355 266.246L474.674 265.514ZM449.326 265.432L448.636 266.156L448.642 266.161L449.326 265.432ZM453.838 264.898L453.06 265.526L453.063 265.531L453.838 264.898ZM470.203 264.898L469.421 264.276L469.42 264.277L470.203 264.898ZM453.756 239.715L452.96 239.109L452.959 239.111L453.756 239.715ZM445.117 252.143C445.117 247.251 446.746 243.217 449.992 239.971L448.578 238.557C444.934 242.201 443.117 246.753 443.117 252.143H445.117ZM449.995 239.968C453.247 236.691 457.227 235.055 462 235.055V233.055C456.711 233.055 452.214 234.891 448.575 238.559L449.995 239.968ZM462 235.055C466.802 235.055 470.795 236.692 474.046 239.968L475.466 238.559C471.826 234.89 467.315 233.055 462 233.055V235.055ZM474.046 239.968C477.296 243.244 478.924 247.28 478.924 252.143H480.924C480.924 246.779 479.106 242.229 475.466 238.559L474.046 239.968ZM478.924 252.143C478.924 257.581 477.252 261.751 473.993 264.781L475.355 266.246C479.096 262.768 480.924 258.025 480.924 252.143H478.924ZM473.996 264.778C470.689 267.827 466.709 269.354 462 269.354V271.354C467.189 271.354 471.659 269.653 475.352 266.249L473.996 264.778ZM462 269.354C457.296 269.354 453.318 267.804 450.01 264.702L448.642 266.161C452.334 269.622 456.806 271.354 462 271.354V269.354ZM450.016 264.708C446.773 261.618 445.117 257.467 445.117 252.143H443.117C443.117 257.92 444.934 262.628 448.636 266.156L450.016 264.708ZM449.926 252.348C449.926 258.355 450.892 262.839 453.06 265.526L454.616 264.271C452.901 262.145 451.926 258.262 451.926 252.348H449.926ZM453.063 265.531C455.222 268.177 458.247 269.467 462 269.467V267.467C458.753 267.467 456.336 266.378 454.613 264.266L453.063 265.531ZM462 269.467C465.826 269.467 468.875 268.182 470.987 265.52L469.42 264.277C467.758 266.372 465.338 267.467 462 267.467V269.467ZM470.986 265.521C473.123 262.835 474.074 258.353 474.074 252.348H472.074C472.074 258.264 471.112 262.15 469.421 264.276L470.986 265.521ZM474.074 252.348C474.074 246.389 473.133 241.9 471.044 239.115L469.444 240.315C471.129 242.561 472.074 246.494 472.074 252.348H474.074ZM471.044 239.115C468.939 236.308 465.871 234.941 462 234.941V236.941C465.348 236.941 467.776 238.091 469.444 240.315L471.044 239.115ZM462 234.941C458.153 234.941 455.09 236.31 452.96 239.109L454.552 240.32C456.25 238.089 458.683 236.941 462 236.941V234.941ZM452.959 239.111C450.866 241.871 449.926 246.365 449.926 252.348H451.926C451.926 246.464 452.872 242.535 454.553 240.319L452.959 239.111Z" fill="#0A0A0A"/>
<path d="M499.146 242.627C500.076 240.193 501.58 238.156 503.658 236.516C505.764 234.875 507.814 234.055 509.811 234.055C511.615 234.055 513.037 234.615 514.076 235.736C515.115 236.857 515.635 238.006 515.635 239.182C515.635 239.975 515.361 240.658 514.814 241.232C514.295 241.807 513.652 242.094 512.887 242.094C511.52 242.094 510.48 241.082 509.77 239.059C509.277 237.691 508.539 237.008 507.555 237.008C506.379 237.008 504.971 237.814 503.33 239.428C501.689 241.014 500.637 242.668 500.172 244.391C499.707 246.113 499.475 248.479 499.475 251.486V257.475C499.475 261.057 499.516 263.312 499.598 264.242C499.707 265.172 500.104 265.883 500.787 266.375C501.471 266.867 502.688 267.113 504.438 267.113H505.586V269H487.744V267.113H488.605C490.246 267.113 491.408 266.895 492.092 266.457C492.803 265.992 493.227 265.35 493.363 264.529C493.5 263.709 493.568 261.357 493.568 257.475V248C493.568 244.391 493.514 242.135 493.404 241.232C493.322 240.303 492.939 239.592 492.256 239.1C491.572 238.58 490.355 238.32 488.605 238.32H487.744V236.475C490.314 236.174 493.678 235.367 497.834 234.055C498.627 236.215 499.064 239.072 499.146 242.627Z" fill="#0A0A0A"/>
<path d="M499.146 242.627L498.147 242.65L500.081 242.984L499.146 242.627ZM503.658 236.516L503.044 235.727L503.039 235.731L503.658 236.516ZM514.814 241.232L514.09 240.543L514.081 240.552L514.073 240.562L514.814 241.232ZM509.77 239.059L510.713 238.727L510.71 238.72L509.77 239.059ZM503.33 239.428L504.025 240.147L504.031 240.141L503.33 239.428ZM499.598 264.242L498.602 264.33L498.603 264.345L498.605 264.359L499.598 264.242ZM505.586 267.113H506.586V266.113H505.586V267.113ZM505.586 269V270H506.586V269H505.586ZM487.744 269H486.744V270H487.744V269ZM487.744 267.113V266.113H486.744V267.113H487.744ZM492.092 266.457L492.631 267.299L492.639 267.294L492.092 266.457ZM493.404 241.232L492.408 241.32L492.41 241.337L492.412 241.353L493.404 241.232ZM492.256 239.1L491.651 239.896L491.661 239.904L491.672 239.911L492.256 239.1ZM487.744 238.32H486.744V239.32H487.744V238.32ZM487.744 236.475L487.628 235.481L486.744 235.585V236.475H487.744ZM497.834 234.055L498.773 233.71L498.444 232.813L497.533 233.101L497.834 234.055ZM500.081 242.984C500.945 240.722 502.339 238.831 504.278 237.301L503.039 235.731C500.821 237.481 499.207 239.665 498.212 242.27L500.081 242.984ZM504.273 237.304C506.262 235.755 508.102 235.055 509.811 235.055V233.055C507.527 233.055 505.266 233.995 503.044 235.727L504.273 237.304ZM509.811 235.055C511.392 235.055 512.527 235.536 513.343 236.416L514.81 235.057C513.547 233.694 511.839 233.055 509.811 233.055V235.055ZM513.343 236.416C514.263 237.409 514.635 238.326 514.635 239.182H516.635C516.635 237.685 515.967 236.305 514.81 235.057L513.343 236.416ZM514.635 239.182C514.635 239.718 514.46 240.154 514.09 240.543L515.539 241.922C516.263 241.162 516.635 240.231 516.635 239.182H514.635ZM514.073 240.562C513.74 240.929 513.366 241.094 512.887 241.094V243.094C513.939 243.094 514.849 242.684 515.556 241.903L514.073 240.562ZM512.887 241.094C512.169 241.094 511.376 240.615 510.713 238.727L508.826 239.39C509.585 241.549 510.87 243.094 512.887 243.094V241.094ZM510.71 238.72C510.433 237.948 510.053 237.275 509.526 236.787C508.977 236.278 508.305 236.008 507.555 236.008V238.008C507.789 238.008 507.978 238.079 508.167 238.254C508.378 238.45 508.614 238.802 508.829 239.397L510.71 238.72ZM507.555 236.008C505.958 236.008 504.3 237.072 502.629 238.715L504.031 240.141C505.641 238.557 506.8 238.008 507.555 238.008V236.008ZM502.635 238.709C500.9 240.386 499.73 242.191 499.206 244.13L501.137 244.651C501.544 243.145 502.479 241.642 504.025 240.147L502.635 238.709ZM499.206 244.13C498.708 245.976 498.475 248.442 498.475 251.486H500.475C500.475 248.515 500.706 246.251 501.137 244.651L499.206 244.13ZM498.475 251.486V257.475H500.475V251.486H498.475ZM498.475 257.475C498.475 261.041 498.515 263.347 498.602 264.33L500.594 264.154C500.516 263.278 500.475 261.072 500.475 257.475H498.475ZM498.605 264.359C498.743 265.533 499.265 266.511 500.203 267.187L501.371 265.563C500.942 265.254 500.671 264.811 500.591 264.125L498.605 264.359ZM500.203 267.187C501.162 267.877 502.662 268.113 504.438 268.113V266.113C502.713 266.113 501.779 265.857 501.371 265.563L500.203 267.187ZM504.438 268.113H505.586V266.113H504.438V268.113ZM504.586 267.113V269H506.586V267.113H504.586ZM505.586 268H487.744V270H505.586V268ZM488.744 269V267.113H486.744V269H488.744ZM487.744 268.113H488.605V266.113H487.744V268.113ZM488.605 268.113C490.277 268.113 491.691 267.901 492.631 267.299L491.553 265.615C491.126 265.888 490.215 266.113 488.605 266.113V268.113ZM492.639 267.294C493.578 266.68 494.166 265.796 494.35 264.694L492.377 264.365C492.287 264.903 492.027 265.304 491.545 265.62L492.639 267.294ZM494.35 264.694C494.503 263.771 494.568 261.318 494.568 257.475H492.568C492.568 261.397 492.497 263.647 492.377 264.365L494.35 264.694ZM494.568 257.475V248H492.568V257.475H494.568ZM494.568 248C494.568 244.413 494.515 242.088 494.397 241.112L492.412 241.353C492.512 242.182 492.568 244.368 492.568 248H494.568ZM494.4 241.145C494.296 239.96 493.787 238.97 492.84 238.288L491.672 239.911C492.092 240.214 492.349 240.645 492.408 241.32L494.4 241.145ZM492.861 238.303C491.897 237.571 490.386 237.32 488.605 237.32V239.32C490.325 239.32 491.247 239.589 491.651 239.896L492.861 238.303ZM488.605 237.32H487.744V239.32H488.605V237.32ZM488.744 238.32V236.475H486.744V238.32H488.744ZM487.86 237.468C490.522 237.156 493.953 236.329 498.135 235.008L497.533 233.101C493.402 234.406 490.107 235.191 487.628 235.481L487.86 237.468ZM496.895 234.399C497.636 236.416 498.066 239.152 498.147 242.65L500.146 242.604C500.063 238.993 499.618 236.014 498.773 233.71L496.895 234.399Z" fill="#0A0A0A"/>
<path d="M212.007 89.1704C212.007 93.4676 210.558 97.1652 207.66 100.263C204.861 103.361 201.314 104.91 197.017 104.91C192.619 104.91 189.422 103.561 187.423 100.863C185.424 98.1646 183.425 93.7674 181.427 87.6714C180.727 85.3729 179.778 83.5741 178.579 82.2749C177.479 80.9757 175.83 80.3262 173.632 80.3262C171.034 80.3262 169.035 81.4255 167.636 83.624C166.337 85.7227 165.187 88.5208 164.188 92.0186L146.05 151.23H171.233L166.886 165.021H141.703L115.62 250.315C108.724 272.501 102.478 289.94 96.8818 302.631C91.2855 315.423 83.4406 326.366 73.3472 335.46C63.2537 344.654 50.4621 349.251 34.9722 349.251C23.8794 349.251 15.335 346.803 9.33887 341.906C3.24284 337.109 0.194824 331.662 0.194824 325.566C0.194824 320.969 1.79378 316.922 4.9917 313.424C8.18962 310.027 12.3369 308.328 17.4336 308.328C23.5296 308.328 27.527 309.927 29.4258 313.125C31.3245 316.422 32.5238 320.67 33.0234 325.866C33.623 332.662 36.5212 336.06 41.7178 336.06C46.8145 336.06 51.0117 333.211 54.3096 327.515C57.6074 321.919 60.9552 313.274 64.353 301.582L106.176 165.021H79.793L83.9902 151.23H110.373L113.221 141.636C117.119 128.045 121.416 116.203 126.113 106.109C130.81 95.916 137.755 86.8719 146.949 78.9771C156.243 71.0822 167.836 67.1348 181.727 67.1348C186.923 67.1348 191.87 68.0342 196.567 69.833C201.264 71.5319 205.011 74.0303 207.81 77.3281C210.608 80.626 212.007 84.5734 212.007 89.1704Z" fill="#F04C04"/>
<path d="M210 237.875C210 239.292 209.542 240.292 208.625 240.875C207.75 241.417 206.896 241.688 206.062 241.688C204.979 241.688 203.896 241.312 202.812 240.562C202.146 240.062 201.521 239.812 200.938 239.812C199.896 239.812 199.083 240.396 198.5 241.562C199.333 242.896 199.979 244.208 200.438 245.5C200.938 246.792 201.188 248.438 201.188 250.438C201.188 252.188 200.812 254.167 200.062 256.375C199.312 258.542 197.958 260.667 196 262.75C194.083 264.833 191.271 266.583 187.562 268C183.896 269.417 179.333 270.125 173.875 270.125C168.667 270.125 165.167 270.583 163.375 271.5C161.625 272.417 160.75 273.75 160.75 275.5C160.75 276.292 161.062 276.979 161.688 277.562C162.312 278.104 163.25 278.604 164.5 279.062C165.792 279.521 168.062 280.208 171.312 281.125C174.604 282 177.812 282.896 180.938 283.812C192.188 287.021 197.812 292.229 197.812 299.438C197.812 302.562 196.75 305.458 194.625 308.125C192.5 310.792 188.938 313 183.938 314.75C178.938 316.5 172.354 317.375 164.188 317.375C160.938 317.375 157.146 317.042 152.812 316.375C148.479 315.75 144.521 314.375 140.938 312.25C137.312 310.125 135.5 307.042 135.5 303C135.5 301 135.958 299.208 136.875 297.625C137.792 296.042 138.938 294.812 140.312 293.938C141.646 293.062 142.938 292.625 144.188 292.625C144.979 292.625 145.646 292.771 146.188 293.062C146.729 293.354 147 293.771 147 294.312C147 294.854 146.583 295.667 145.75 296.75C144.292 298.625 143.562 300.292 143.562 301.75C143.562 305.75 145.833 308.438 150.375 309.812C154.917 311.188 159.562 311.875 164.312 311.875C170.146 311.875 174.792 311.083 178.25 309.5C181.75 307.917 183.5 305.833 183.5 303.25C183.5 301.958 183.146 300.938 182.438 300.188C181.729 299.438 180.375 298.667 178.375 297.875C176.417 297.125 172.792 295.896 167.5 294.188C162.75 292.688 159.062 291.333 156.438 290.125C153.854 288.917 151.896 287.5 150.562 285.875C149.229 284.208 148.562 282.167 148.562 279.75C148.562 276.25 150.042 273.396 153 271.188C156 268.979 159.562 267.562 163.688 266.938C160.438 265.646 158.021 263.708 156.438 261.125C154.854 258.542 154.062 255.875 154.062 253.125C154.062 249.75 155.104 246.521 157.188 243.438C159.312 240.312 162.271 237.792 166.062 235.875C169.854 233.958 174.167 233 179 233C186.083 233 191.417 234.667 195 238C196.5 236.5 197.938 235.292 199.312 234.375C200.729 233.458 202.5 233 204.625 233C206.25 233 207.542 233.438 208.5 234.312C209.5 235.146 210 236.333 210 237.875ZM187.625 245.312C187.625 243.896 187.354 242.625 186.812 241.5C186.271 240.333 185.438 239.396 184.312 238.688C183.229 237.979 181.979 237.625 180.562 237.625C177.979 237.625 175.708 238.771 173.75 241.062C171.792 243.312 170.292 246.021 169.25 249.188C168.25 252.312 167.75 255.062 167.75 257.438C167.75 259.979 168.354 261.854 169.562 263.062C170.812 264.271 172.479 264.875 174.562 264.875C178.771 264.875 182 262.604 184.25 258.062C186.5 253.521 187.625 249.271 187.625 245.312Z" fill="#F04C04"/>
</svg>
